<svg width="16" height="16" xmlns="http://www.w3.org/2000/svg"><path d="M2.502 2a.5.5 0 0 0-.39.813l3.05 3.812A5.5 5.5 0 0 1 9.5 12a5.5 5.5 0 0 1-.045.633l.324-.217a.5.5 0 0 0 .223-.416V7.676l3.89-4.864a.5.5 0 0 0-.39-.812h-11z" color="#000" fill="#73a9d8"/><path d="M8 12a4 4 0 1 0-8 0 4 4 0 0 0 8 0zm-5.737.5c.047.848.21 1.613.45 2.21a3.004 3.004 0 0 1-1.672-2.21zm1.002 0c.048.785.207 1.455.414 1.928.118.271.236.437.321.525.085-.088.202-.254.321-.525.207-.473.366-1.143.414-1.928zm1.47-1h-1.47c.048-.785.207-1.455.414-1.928.119-.271.236-.437.321-.525.085.088.203.254.321.525.207.473.366 1.143.414 1.928zm1.001 1c-.046.848-.208 1.613-.45 2.21a3.004 3.004 0 0 0 1.672-2.21zm1.222-1H5.736c-.046-.848-.208-1.613-.45-2.21a3.004 3.004 0 0 1 1.672 2.21zm-4.695 0H1.041a3.004 3.004 0 0 1 1.672-2.21c-.24.597-.403 1.362-.45 2.21z" clip-rule="evenodd" fill="#6c707e" fill-rule="evenodd"/></svg>