<svg width="16" height="16" xmlns="http://www.w3.org/2000/svg"><g fill="#ced0d6"><rect x="1" y="13" width="6" height="1" rx=".35"/><rect x="1" y="11" width="6" height="1" rx=".35"/><rect x="1.052" y="9" width="5.947" height="1" rx=".35"/></g><path d="M12.5 9a3.5 3.5 0 1 0 0 7 3.5 3.5 0 0 0 0-7zm-.5 1h1v3h-1zm0 4h1v1h-1z" fill="#e05454" fill-opacity=".702"/><path d="M2.499 2.001a.5.5 0 0 0-.39.813L5.858 7.5h1.138c.912 0 1.407.418 1.492 1.25a5.5 5.5 0 0 1 1.6-1.185l3.8-4.753a.5.5 0 0 0-.39-.812z" color="#000" fill="#73a9d8"/></svg>