<svg width="16" height="16" xmlns="http://www.w3.org/2000/svg"><g fill="#6c707e"><rect x="1" y="13" width="6" height="1" rx=".35"/><rect x="1" y="11" width="6" height="1" rx=".35"/><rect x="1" y="9" width="6" height="1" rx=".35"/><path d="M2.5 2a.5.5 0 0 0-.39.813L5.86 7.5H7a.5.5 0 0 0-.11-.313L3.542 3h8.918l-3.35 4.188A.5.5 0 0 0 9 7.5v.768a5.5 5.5 0 0 1 1.088-.702l3.803-4.753A.5.5 0 0 0 13.5 2h-11z"/></g><path d="M12.5 9a3.5 3.5 0 1 0 0 7 3.5 3.5 0 0 0 0-7zm-.5 1h1v3h-1zm0 4h1v1h-1z" fill="#e05454" fill-opacity=".702"/><path d="M2.502 2a.5.5 0 0 0-.39.813L5.861 7.5H7c.912 0 1.407.418 1.492 1.25a5.5 5.5 0 0 1 1.6-1.185l3.8-4.753a.5.5 0 0 0-.39-.812h-11z" color="#000" fill="#73a9d8"/></svg>