<svg width="16" height="16" xmlns="http://www.w3.org/2000/svg"><path d="M2.502 2a.5.5 0 0 0-.39.813l3.05 3.812a5.5 5.5 0 0 1 3.27 2.135 5.535 5.465 45.174 0 1 1.7-1.246l3.76-4.702a.5.5 0 0 0-.39-.812h-11z" color="#000" fill="#73a9d8"/><path d="M8 12a4 4 0 1 0-8 0 4 4 0 0 0 8 0zm-5.737.5c.047.848.21 1.613.45 2.21a3.004 3.004 0 0 1-1.672-2.21zm1.002 0c.048.785.207 1.455.414 1.928.118.271.236.437.321.525.085-.088.202-.254.321-.525.207-.473.366-1.143.414-1.928zm1.47-1h-1.47c.048-.785.207-1.455.414-1.928.119-.271.236-.437.321-.525.085.088.203.254.321.525.207.473.366 1.143.414 1.928zm1.001 1c-.046.848-.208 1.613-.45 2.21a3.004 3.004 0 0 0 1.672-2.21zm1.222-1H5.736c-.046-.848-.208-1.613-.45-2.21a3.004 3.004 0 0 1 1.672 2.21zm-4.695 0H1.041a3.004 3.004 0 0 1 1.672-2.21c-.24.597-.403 1.362-.45 2.21z" clip-rule="evenodd" fill="#6c707e" fill-rule="evenodd"/><path d="M12.5 9a3.5 3.5 0 1 0 0 7 3.5 3.5 0 0 0 0-7zm-.5 1h1v3h-1zm0 4h1v1h-1z" fill="#e05454" fill-opacity=".702"/></svg>