<svg width="16" height="16" xmlns="http://www.w3.org/2000/svg"><g fill="#5f8dd3"><path d="M2 10.6v2.003C2 13.137 4.7 14 8 14c.19 0 .378-.005.564-.01L7 13v-1l.04-.028C4.192 11.828 2 11.08 2 10.6zM2 7.6v2.003C2 10.137 4.7 11 8 11c.165 0 .328-.004.49-.008l.512-.346V8.97C8.675 8.988 8.342 9 8 9c-3.3 0-6-.867-6-1.4zM8 6c3.3 0 6-.867 6-1.4v2.004C14 7.137 11.3 8 8 8s-6-.863-6-1.396V4.6C2 5.133 4.7 6 8 6z"/><path d="M2 3.5C2 4.328 4.686 5 8 5s6-.672 6-1.5S11.314 2 8 2s-6 .672-6 1.5z"/></g><path fill="#e27654" fill-rule="evenodd" d="m14.003 9-.04 2.358 2.04 1.143-2.04 1.144.04 2.358-2.001-1.214-2.001 1.214.04-2.358-2.04-1.144 2.04-1.143L10.001 9l2.001 1.214z"/></svg>