<svg width="16" height="16" xmlns="http://www.w3.org/2000/svg"><g fill="#afb1b3"><g stroke-width=".913"><path d="M8 12c3.3 0 6-.867 6-1.4v2.004C14 13.137 11.3 14 8 14s-6-.863-6-1.396V10.6c0 .533 2.7 1.4 6 1.4z"/><path d="M8 9c3.3 0 6-.867 6-1.4v2.004C14 10.137 11.3 11 8 11s-6-.863-6-1.396V7.6C2 8.133 4.7 9 8 9z"/><path d="M8 6c3.3 0 6-.867 6-1.4v2.004C14 7.137 11.3 8 8 8s-6-.863-6-1.396V4.6C2 5.133 4.7 6 8 6z"/></g><path d="M2 3.5C2 4.328 4.686 5 8 5s6-.672 6-1.5S11.314 2 8 2s-6 .672-6 1.5z"/></g></svg>