<svg width="16" height="16" xmlns="http://www.w3.org/2000/svg"><path d="M10 1c-2.733 0-5.037.457-5.762 1.082A7 2.5 0 0 1 6 2a7 2.5 0 0 1 6.744 1.832C14.676 3.582 16 3.081 16 2.5c0-.828-2.686-1.5-6-1.5zm6 2.6c0 .133-.168.287-.473.443-.835.321-1.653.56-2.527.715v2c.452-.075.87-.16 1.238-.256.544-.141.985-.3 1.29-.455.304-.156.472-.31.472-.444zm-.002 3.011-.006.04c-.098.236-.46.4-.79.54-.669.26-1.421.441-2.202.569v1.99c.782-.13 1.545-.298 2.209-.566.344-.138.718-.309.789-.555.005-.633 0-1.264.002-1.897-.002-.028.002-.122-.002-.12zM16 9.6c-.031.236-.384.406-.693.546-.69.288-1.484.474-2.307.61v2.004c.795-.13 1.563-.314 2.238-.582.327-.142.692-.308.76-.55.005-.675 0-1.352.002-2.028z" fill="#afb1b3"/><path d="M6 3c-3.314 0-6 .672-6 1.5S2.686 6 6 6s6-.672 6-1.5S9.314 3 6 3zM0 5.6v2.004C0 8.136 2.7 9 6 9s6-.863 6-1.397V5.6C12 6.133 9.3 7 6 7s-6-.867-6-1.4zm0 3v2.004C0 11.136 2.7 12 6 12s6-.863 6-1.397V8.6c0 .533-2.7 1.4-6 1.4s-6-.867-6-1.4zm0 3v2.004C0 14.136 2.7 15 6 15s6-.863 6-1.397V11.6c0 .533-2.7 1.4-6 1.4s-6-.867-6-1.4z" fill="#5f8dd3"/></svg>