<svg width="16" height="16" xmlns="http://www.w3.org/2000/svg"><g fill="#afb1b3"><g stroke-width=".913"><path d="M2 10.6v2.003c0 .492 2.3 1.264 5.246 1.381a5.486 5.512 0 0 1-.215-1.29 5.486 5.512 0 0 1 .024-.72C4.2 11.832 2 11.081 2 10.6zM2 7.6v2.003c0 .492 2.294 1.261 5.236 1.38a5.486 5.514 0 0 1 1.037-1.987C8.183 8.997 8.093 9 8 9c-3.3 0-6-.867-6-1.4zM2 4.6v2.003C2 7.137 4.7 8 8 8c.482 0 .949-.022 1.398-.055a5.486 5.514 0 0 1 2.795-.965 5.486 5.514 0 0 1 1.28.092c.336-.164.527-.328.527-.469V4.6C14 5.133 11.3 6 8 6s-6-.867-6-1.4z"/></g><path d="M2 3.5C2 4.328 4.686 5 8 5s6-.672 6-1.5S11.314 2 8 2s-6 .672-6 1.5z"/></g><g fill-rule="evenodd"><path d="M16 12.5a3.5 3.5 0 1 1-7 0 3.5 3.5 0 0 1 7 0" fill="#e05555"/><path d="M13 14v1h-1v-1zm0-4v3h-1v-3z" fill="#fff"/></g></svg>