<svg width="16" height="16" xmlns="http://www.w3.org/2000/svg"><g fill="#5f8dd3" stroke-width=".913"><path d="M2 3.5C2 4.328 4.686 5 8 5s6-.672 6-1.5S11.314 2 8 2s-6 .672-6 1.5z"/><path d="M8 6c3.3 0 6-.867 6-1.4v2.004C14 7.137 11.3 8 8 8s-6-.863-6-1.396V4.6C2 5.133 4.7 6 8 6zM2 7.6v2.003C2 10.137 4.7 11 8 11c.144 0 .286-.005.428-.008a5 5 90 0 1 1.765-2.121C9.513 8.95 8.773 9 8 9c-3.3 0-6-.867-6-1.4zm12 0c0 .13-.164.281-.459.435a5 5 90 0 1 .459.072V7.6zM2 10.6v2.003C2 13.137 4.7 14 8 14l.11-.002a5 5 90 0 1-.106-.813 5 5 90 0 1 .107-1.187L8 12c-3.3 0-6-.867-6-1.4z"/></g><circle cx="13" cy="13" fill="#0cf53a" r="3"/></svg>