<svg width="16" height="16" xmlns="http://www.w3.org/2000/svg"><g fill="#afb1b3"><g stroke-width=".913"><path d="M2 10.6v2.003c0 .491 2.29 1.26 5.229 1.38a5.486 5.514 0 0 1-.211-1.278 5.486 5.514 0 0 1 .023-.733c-2.847-.144-5.04-.892-5.04-1.373zM2 7.6v2.003c0 .491 2.288 1.26 5.225 1.38A5.5 5.5 0 0 1 8.27 8.995C8.181 8.997 8.091 9 8 9c-3.3 0-6-.867-6-1.4zM2 4.6v2.003C2 7.137 4.7 8 8 8c.491 0 .966-.022 1.424-.057a5.486 5.514 0 0 1 2.77-.949 5.486 5.514 0 0 1 1.255.088c.35-.168.55-.335.55-.478V4.6C14 5.133 11.3 6 8 6s-6-.867-6-1.4z"/></g><path d="M2 3.5C2 4.328 4.686 5 8 5s6-.672 6-1.5S11.314 2 8 2s-6 .672-6 1.5z"/></g><g fill-rule="evenodd"><path d="M16 12.5a3.5 3.5 0 1 1-7 0 3.5 3.5 0 0 1 7 0" fill="#e05555"/><path d="M13 14v1h-1v-1zm0-4v3h-1v-3z" fill="#fff"/></g></svg>