<svg width="16" height="16" xmlns="http://www.w3.org/2000/svg"><path fill="#6f737a" fill-opacity=".4" d="M.5 1.5h15v3H.5z"/><path d="M1.5 1C.678 1 0 1.678 0 2.5v10c0 .822.678 1.5 1.5 1.5h7v-1H6v-2h2.5v-.75c0-.084.003-.167.008-.25H6V8h3.145A4.267 4.267 0 0 1 11 6.377V5h4v1.66c.379.245.715.55 1 .903V2.5c0-.822-.678-1.5-1.5-1.5h-13zm0 1H5v2H1V2.5c0-.286.214-.5.5-.5zM6 2h4v2H6V2zm5 0h3.5c.286 0 .5.214.5.5V4h-4V2zM1 5h4v2H1V5zm5 0h4v2H6V5zM1.06 8H5v2H1.06V8zM1 11h4v2H1.5a.488.488 0 0 1-.5-.5V11z" fill="#6f737a"/><g transform="translate(4.697 3.997)" fill="#db5c5c"><path d="M7.592 8.521c.081-.183.18-.341.297-.473.118-.132.275-.29.473-.473.191-.172.341-.32.451-.446.114-.124.21-.269.286-.434.077-.169.116-.356.116-.561 0-.231-.05-.436-.149-.616-.095-.18-.23-.319-.407-.418s-.377-.148-.605-.148c-.253 0-.476.055-.67.165a1.14 1.14 0 0 0-.52.612c-.106.28-.334.531-.633.531s-.55-.245-.49-.538a2.14 2.14 0 0 1 .245-.65c.198-.34.477-.605.836-.792.36-.187.774-.28 1.243-.28.448 0 .842.086 1.183.259s.605.416.792.731c.187.312.279.671.275 1.078 0 .315-.05.594-.149.836-.099.238-.22.438-.363.6s-.328.342-.555.544c-.169.15-.3.277-.396.38a1.544 1.544 0 0 0-.242.346.76.76 0 0 0-.044.11c-.088.274-.284.517-.572.517s-.54-.236-.5-.522a1.3 1.3 0 0 1 .098-.358z"/><circle cx="8" cy="10.75" r=".75"/></g></svg>