<svg xmlns="http://www.w3.org/2000/svg" width="16" height="16"><path fill="#379ed4" fill-opacity=".4" d="M.5 1.5h15v3H.5z"/><path d="M1.5 1C.678 1 0 1.678 0 2.5v10c0 .822.678 1.5 1.5 1.5h13c.822 0 1.5-.678 1.5-1.5v-10c0-.822-.678-1.5-1.5-1.5zm0 1H5v2H1V2.5c0-.286.214-.5.5-.5zM6 2h4v2H6zm5 0h3.5c.286 0 .5.214.5.5V4h-4zM1 5h4v2H1zm5 0h4v2H6zm5 0h4v2h-4zM1.06 8H5v2H1.06zM6 8h4v2H6zm5 0h4v2h-4zM1 11h4v2H1.5a.488.488 0 0 1-.5-.5zm5 0h4v2H6zm5 0h4v1.5c0 .286-.214.5-.5.5H11z" color="#000" fill="#389fd6"/></svg>