<svg width="16" height="16" xmlns="http://www.w3.org/2000/svg"><path fill="#a8adbd" fill-opacity=".4" d="M.5 1.5h15v3H.5z"/><path d="M8.998 8.504a1.5 1.5 0 0 1 2.294-1.273l4.002 2.498a1.5 1.5 0 0 1 0 2.545l-4.002 2.498a1.5 1.5 0 0 1-2.294-1.273zm1.765-.425a.5.5 0 0 0-.765.424V13.5a.5.5 0 0 0 .765.424l4.002-2.498a.5.5 0 0 0 0-.848z" clip-rule="evenodd" fill="#208a3c" fill-rule="evenodd"/><path d="M9.998 8.504a.5.5 0 0 1 .765-.425l4.002 2.498a.5.5 0 0 1 0 .848l-4.002 2.498a.5.5 0 0 1-.765-.424z" fill="#f2fcf3"/><path d="M1.5 1C.678 1 0 1.678 0 2.5v10c0 .822.678 1.5 1.5 1.5h5.541A2.5 2.5 0 0 1 7 13.594L7.002 13H6v-2h1.008l.002-1H6V8h1.015v-.004A2.5 2.5 0 0 1 7.232 7H6V5c3.002-.095 5.986 0 9 0v2.123l1 .711V2.5c0-.822-.678-1.5-1.5-1.5zm0 1H5v2H1V2.5c0-.286.214-.5.5-.5zM6 2h4v2H6zm5 0h3.5c.286 0 .5.214.5.5V4h-4zM1 5h4v2H1zm0 3h4v2H1zm0 3h4v2H1.5a.488.488 0 0 1-.5-.5z" fill="#a8adbd"/></svg>