<svg width="16" height="16" xmlns="http://www.w3.org/2000/svg"><path d="M12.5 2a.5.5 0 0 0-.5.5l.007 9.793-1.146-1.146a.5.5 0 1 0-.707.707l2 2a.5.5 0 0 0 .707 0l2-2a.5.5 0 0 0-.707-.707l-1.147 1.146L13 2.5a.5.5 0 0 0-.5-.5z" clip-rule="evenodd" fill="#3574f0" fill-rule="evenodd"/><g fill="#6c707e"><rect x="1" y="8" width="9.007" height="1" rx=".5"/><rect x="1" y="12" width="7" height="1" rx=".5"/><rect x="1" y="10" width="7" height=".993" rx=".5"/><rect x="1" y="6" width="9.007" height="1" rx=".5"/><rect x="1" y="4" width="9.007" height="1" rx=".5"/><rect x="1" y="2" width="9.007" height="1" rx=".5"/></g></svg>