<svg width="16" height="16" xmlns="http://www.w3.org/2000/svg"><path d="M12.5 13a.5.5 0 0 1-.5-.5V3.707l-1.146 1.147a.5.5 0 1 1-.707-.708l2-2a.5.5 0 0 1 .707 0l2 2a.5.5 0 0 1-.707.708L13 3.707V12.5a.5.5 0 0 1-.5.5z" clip-rule="evenodd" fill="#db5c5c" fill-rule="evenodd"/><g transform="translate(0 -5)" fill="#ced0d6"><rect x="1" y="14" width="9" height="1" rx=".5"/><rect x="1" y="8" width="7" height="1" rx=".5"/><rect x="1" y="12" width="9" height="1" rx=".5"/><rect x="1" y="10" width="7" height="1" rx=".5"/></g></svg>