<svg width="16" height="16" xmlns="http://www.w3.org/2000/svg"><path d="M7.322 6a5.2 5.2 0 0 1 1.877 4 5.2 5.2 0 0 1-.816 2.783L9.568 14H13V6z" fill="#fff"/><path d="M0 3v3.701a5.2 5.2 0 0 1 4-1.9A5.2 5.2 0 0 1 7.32 6H9v2h-.2a5.2 5.2 0 0 1 .4 2 5.2 5.2 0 0 1-.417 2H9v1.42L10.54 15H14V3zm10 3h3v2h-3zm0 3h3v2h-3zm0 3h3v2h-3zM0 13.299V15h2.62A5.2 5.2 0 0 1 0 13.299z" fill="#73a9d8"/><g transform="rotate(-45.025 14.346 35.411)"><circle transform="rotate(45.025)" cx="24.472" cy="-10.559" r="3.4" fill="#fff"/><path d="M25.008 6.133a4 4 0 1 0 0 8 4 4 0 0 0 0-8zm.008 1a3 3 0 0 1 3 3 3 3 0 0 1-3 3 3 3 0 0 1-3-3 3 3 0 0 1 3-3z" fill="#6e6e6e"/><path fill="#6e6e6e" d="M23.999 13.65h1.196l-.005 4.2h-1.196z"/></g><path d="M2 0v2h13v10h1V0z" fill="#73a9d8"/></svg>