<svg width="16" height="16" xmlns="http://www.w3.org/2000/svg"><path d="M8.322 5a5.2 5.2 0 0 1 1.877 4 5.2 5.2 0 0 1-.816 2.783L10.568 13H14V5H8.322z" fill="#fff"/><path d="M1 2v3.701a5.2 5.2 0 0 1 4-1.9A5.2 5.2 0 0 1 8.32 5H10v2h-.2a5.2 5.2 0 0 1 .4 2 5.2 5.2 0 0 1-.417 2H10v1.42L11.54 14H15V2H1zm10 3h3v2h-3V5zm0 3h3v2h-3V8zm0 3h3v2h-3v-2zM1 12.299V14h2.62A5.2 5.2 0 0 1 1 12.299z" fill="#73a9d8"/><g transform="rotate(-45.025 13.639 33.705)"><circle transform="rotate(45.025)" cx="24.472" cy="-10.559" r="3.4" fill="#fff"/><path d="M25.008 6.133a4 4 0 1 0 0 8 4 4 0 0 0 0-8zm.008 1a3 3 0 0 1 3 3 3 3 0 0 1-3 3 3 3 0 0 1-3-3 3 3 0 0 1 3-3z" fill="#6e6e6e"/><path fill="#6e6e6e" d="M23.999 13.65h1.196l-.005 4.2h-1.196z"/></g></svg>