<svg width="16" height="16" xmlns="http://www.w3.org/2000/svg"><g fill="#eda200" stroke-width=".913"><path d="M8 5.667c3.85 0 7-1.011 7-1.634v2.338C15 6.993 11.85 8 8 8S1 6.993 1 6.37V4.034c0 .623 3.15 1.634 7 1.634z"/><path d="M1 2.75C1 3.716 4.134 4.5 8 4.5s7-.784 7-1.75S11.866 1 8 1s-7 .784-7 1.75zM8 9.167c3.85 0 7-1.011 7-1.634v2.338c0 .622-3.15 1.629-7 1.629s-7-1.007-7-1.63V7.534c0 .623 3.15 1.634 7 1.634z"/><path d="M8 12.667c3.85 0 7-1.011 7-1.634v2.338C15 13.993 11.85 15 8 15s-7-1.007-7-1.63v-2.337c0 .623 3.15 1.634 7 1.634z"/></g></svg>