<svg width="16" height="16" viewBox="0 0 4.233 4.233" xmlns="http://www.w3.org/2000/svg"><g fill="#ced0d6"><path d="M2.778 0a.926.926 0 0 0-.926.926.926.926 0 0 0 .926.926.926.926 0 0 0 .926-.926A.926.926 0 0 0 2.778 0Zm0 .265a.661.661 0 0 1 .662.661.661.661 0 0 1-.662.661.661.661 0 0 1-.661-.661.661.661 0 0 1 .661-.661Z"/><path d="m3.31 1.66.207-.207.635.613s.108.104.002.21-.21-.003-.21-.003z" fill-rule="evenodd"/></g><path d="M1.327.974.069 1.6a.132.132 0 0 0-.012.01.132.132 0 0 0-.027.02.132.132 0 0 0-.014.022.132.132 0 0 0-.013.027.132.132 0 0 0-.005.025.132.132 0 0 0-.003.015v1.588a.132.132 0 0 0 .074.117l1.588.795a.132.132 0 0 0 .008.003.132.132 0 0 0 .01.004.132.132 0 0 0 .045.006.132.132 0 0 0 .005 0 .132.132 0 0 0 .049-.013l1.588-.795a.132.132 0 0 0 .074-.117V2.221a1.455 1.455 0 0 1-.265.105v.9l-1.323.662V2.595l.37-.185.169-.084a1.455 1.455 0 0 1-.321-.135l-.35.175L.425 1.72l.938-.47a1.455 1.455 0 0 1-.037-.276zm-1.067.96 1.323.661v1.293L.26 3.226V1.935z" color="#000" fill="#ced0d6"/></svg>