<svg width="16" height="16" xmlns="http://www.w3.org/2000/svg"><path d="M11.504 9.504v2l1.983 1" fill="none" stroke="#ced0d6" stroke-linecap="round" stroke-linejoin="round"/><path d="M11.506 7.008a4.494 4.496 0 0 0-4.494 4.496A4.494 4.496 0 0 0 11.506 16 4.494 4.496 0 0 0 16 11.504a4.494 4.496 0 0 0-4.494-4.496zm0 .996a3.498 3.5 0 0 1 3.498 3.5 3.498 3.5 0 0 1-3.498 3.5 3.498 3.5 0 0 1-3.498-3.5 3.498 3.5 0 0 1 3.498-3.5z" fill="#ced0d6"/><path d="M5.5 1C3.55 1 0 1.29 0 3v8.99c0 1.513 3.125 2.013 5.5 2.01h.014a6.5 6.492 0 0 1-.323-1.006C2.838 12.947 1 12.38 1 11.9v-1.7s.916.728 4.037.796a6.5 6.492 0 0 1 .156-1.002C2.84 9.948 1 9.38 1 8.9V7.195S2 8 5.5 8c.185 0 .36-.004.531-.008a6.5 6.492 0 0 1 .871-1.057A15.2 15.2 0 0 1 5.5 7C3 7 1 6.4 1 5.9V4.195S2 5 5.5 5s4.5-.805 4.5-.805V5.2a6.5 6.492 0 0 1 1-.156V3c0-1.6-3.55-2-5.5-2zm0 1c2.485 0 4.5.4 4.5 1S7.985 4 5.5 4 1 3.6 1 3s2.015-1 4.5-1z" fill="#ced0d6"/></svg>