<svg width="16" height="16" xmlns="http://www.w3.org/2000/svg"><path d="M11.504 9.504v2l1.983 1" fill="none" stroke="#6c707e" stroke-linecap="round" stroke-linejoin="round"/><path d="M11.506 7.008a4.494 4.496 0 0 0-4.494 4.496A4.494 4.496 0 0 0 11.506 16 4.494 4.496 0 0 0 16 11.504a4.494 4.496 0 0 0-4.494-4.496zm0 .996a3.498 3.5 0 0 1 3.498 3.5 3.498 3.5 0 0 1-3.498 3.5 3.498 3.5 0 0 1-3.498-3.5 3.498 3.5 0 0 1 3.498-3.5z" fill="#6c707e"/><path d="M5.5.95c-1.95 0-5.5.289-5.5 2v8.99c0 1.512 3.125 2.012 5.5 2.01a6.5 6.492 0 0 1-.314-1.005C2.835 12.898 1 12.328 1 11.85v-1.7s.917.73 4.045.797a6.5 6.492 0 0 1 .166-1.002c-2.363-.044-4.21-.615-4.21-1.095V7.147s1 .802 4.5.802c.2 0 .39-.003.575-.008a6.5 6.492 0 0 1 .893-1.064c-.46.045-.953.072-1.469.072-2.5 0-4.5-.6-4.5-1.1V4.147s1 .803 4.5.803 4.5-.803 4.5-.803v1.06a6.5 6.492 0 0 1 1-.157v-2.1c0-1.6-3.55-2-5.5-2zm0 1c2.485 0 4.5.4 4.5 1s-2.015 1-4.5 1-4.5-.4-4.5-1 2.015-1 4.5-1z" fill="#6c707e"/></svg>