<svg width="16" height="16" xmlns="http://www.w3.org/2000/svg"><g fill="#5f8dd3"><path d="M11.043.037A4.2 4.174.002 0 1 12.4 3.1a4.2 4.174.002 0 1-1.652 3.318 3.085 3.085 0 0 0 1.381-.344c1.55-.795 2.173-2.721 1.39-4.299A3.139 3.139 0 0 0 11.044.037z"/><path d="m12.86 3.996-.632.303a4.2 4.174.002 0 1-1.624 2.248l.466.941 1.065.373.353.713-.347 1.074.343.698 2.112.707 1.402-.72-3.139-6.337z"/></g><path d="M8.15.043c-1.684 0-3.058 1.347-3.138 3.04A4.19 4.185 0 0 1 5.8 3a4.19 4.185 0 0 1 4.006 2.96 3.209 3.209 0 0 0 1.486-2.72c0-1.766-1.407-3.197-3.143-3.197zm0 1.62c.434 0 .785.358.785.8 0 .442-.35.799-.785.799s-.785-.357-.785-.8c0-.44.351-.8.785-.8z" fill="#f5c400"/><g fill="#5f8dd3"><path d="M5.928 4.008a4.2 4.174.002 0 1 1.468 3.168 4.2 4.174.002 0 1-1.527 3.219 3.09 3.09 0 0 0 1.262-.338c1.55-.796 2.173-2.722 1.39-4.3a3.137 3.137 0 0 0-2.593-1.75z"/><path d="m7.861 7.978-.611.293a4.2 4.174.002 0 1-1.621 2.307l.441.893 1.065.373.353.713-.347 1.074.345.697 2.112.707L11 14.316 7.861 7.978z"/></g><g fill="#f5c400"><path d="M3.152 4.025c1.735 0 3.142 1.431 3.143 3.198 0 1.767-1.407 3.2-3.143 3.2-1.737 0-3.144-1.433-3.144-3.2 0-1.767 1.408-3.198 3.144-3.198zm0 1.62c-.434 0-.786.358-.786.8s.352.8.786.8c.434 0 .785-.359.785-.8s-.351-.8-.785-.8z"/><path d="M4.723 8.902V16H3.152L1.58 14.4v-.78l.786-.799v-.8l-.786-.82V8.822z"/></g></svg>