<svg width="16" height="16" xmlns="http://www.w3.org/2000/svg"><path d="M2 5h8v8H2z" fill="#f2f2f2"/><path d="M1 2v12h9v-1H6v-2h4v-1H6V8h4V7H6V5h4V2H1zm1 3h3v2H2V5zm0 3h3v2H2V8zm0 3h3v2H2v-2z" fill="#afb1b3"/><path d="M11 5v2.055A3.5 3.5 0 0 1 13.5 6a3.5 3.5 0 0 1 .5.035V5h-3zm0 6.945V13h.4v-.707a3.5 3.5 0 0 1-.4-.348z" fill="#cce9ff"/><path d="M10 2v7.5A3.5 3.5 0 0 1 11.055 7H11V5h3v1.037a3.5 3.5 0 0 1 1 .3V2h-5zm0 7.5V14h1.4v-1H11v-1.055A3.5 3.5 0 0 1 10 9.5z" fill="#73a9d8"/><g fill="#f5c400"><path d="M13.516 7.003a2.5 2.5 0 1 1 .001 4.999 2.5 2.5 0 0 1-.001-4.999zm0 1.266a.625.625 0 1 0 0 1.25.625.625 0 0 0 0-1.25z"/><path d="M14.416 10.803v5.198h-.9l-.9-.998v-.6l.4-.4v-1l-.4-.4v-1.8z"/></g></svg>