<svg width="16" height="16" xmlns="http://www.w3.org/2000/svg"><path d="M2 5v8h6.4v-.707A3.5 3.5 0 0 1 7 9.5a3.5 3.5 0 0 1 3-3.46V5H2z" fill="#f2f2f2"/><path d="M1 2v12h7.4v-1H6v-2h1.352a3.5 3.5 0 0 1-.309-1H6V8h1.352a3.5 3.5 0 0 1 .716-1H6V5h4V2H1zm1 3h3v2H2V5zm0 3h3v2H2V8zm0 3h3v2H2v-2z" fill="#afb1b3"/><path d="M11 5v1.035a3.5 3.5 0 0 1 1.016.31A3.5 3.5 0 0 1 13.5 6c.167 0 .334.012.5.035V5z" fill="#cce9ff"/><path d="M10 2v4.04a3.5 3.5 0 0 1 .5-.04 3.5 3.5 0 0 1 .5.037V5h3v1.037a3.5 3.5 0 0 1 1 .3V2z" fill="#73a9d8"/><g fill="#b2b2b2"><path d="M10.498 7a2.501 2.501 0 1 0 .508 4.947A3.5 3.5 0 0 1 9.998 9.5a3.5 3.5 0 0 1 .014-.219.626.626 0 0 1 .188-.941 3.5 3.5 0 0 1 .806-1.29 2.515 2.515 0 0 0-.508-.05z"/><path d="M9.598 10.8v1.8l.4.4v1l-.4.399V15l.9.999h.9v-3.704a3.5 3.5 0 0 1-1.144-1.496h-.656z"/></g><g fill="#f5c400"><path d="M13.498 7a2.5 2.5 0 1 1 .001 4.998 2.5 2.5 0 0 1-.001-4.999zm0 1.265a.625.625 0 1 0 0 1.25.625.625 0 0 0 0-1.25z"/><path d="M14.398 10.8v5.197h-.9l-.9-.998v-.6l.4-.4v-1l-.4-.4v-1.8z"/></g></svg>