<svg width="16" height="16" xmlns="http://www.w3.org/2000/svg"><path d="M5.5 3C3.55 3 0 3.29 0 5v8.99c0 1.513 3.125 2.013 5.5 2.01 1.754-.002 3.914-.274 4.926-1.02a2.5 2.5 0 0 1-1.375-.45c-.821.267-2.1.47-3.551.47C3 15 1 14.4 1 13.9v-1.7s1 .804 4.5.804c.789 0 1.444-.042 1.996-.106l-.848-.943c-.366.028-.75.045-1.148.045C3 12 1 11.4 1 10.9V9.195s.88.708 3.879.795l-.736-.818a2.5 2.5 0 0 1-.172-.25C2.233 8.745 1 8.292 1 7.9V6.195s.624.497 2.588.71a2.5 2.5 0 0 1 .476-.954C2.284 5.83 1 5.48 1 5c0-.6 2.015-1 4.5-1 .169 0 .336.002.5.006V3.01C5.826 3.004 5.656 3 5.5 3zm5 5a2.5 2.5 0 0 1-.361.361l.361.403.361-.403A2.5 2.5 0 0 1 10.5 8z" fill="#6c707e"/><g stroke-linejoin="round" color="#000"><path d="M8.5 1.5h4v6H15l-4.5 5-4.5-5h2.5z" fill="#f2fcf3"/><path d="M8.5 1a.5.5 0 0 0-.5.5V7H6a.5.5 0 0 0-.371.834l4.5 5a.5.5 0 0 0 .742 0l4.5-5A.5.5 0 0 0 15 7h-2V1.5a.5.5 0 0 0-.5-.5zM9 2h3v5.5a.5.5 0 0 0 .5.5h1.379L10.5 11.754 7.121 8H8.5a.5.5 0 0 0 .5-.5z" fill="#208a3c"/></g></svg>