<svg width="16" height="16" xmlns="http://www.w3.org/2000/svg"><path d="M5.5 3C3.55 3 0 3.29 0 5v8.99c0 1.513 3.125 2.013 5.5 2.01 1.738-.002 3.876-.27 4.898-1H8.5a2.5 2.5 0 0 1-.828-.158C7.029 14.939 6.29 15 5.5 15 3 15 1 14.4 1 13.9v-1.7s1 .804 4.5.804c.194 0 .376-.003.555-.008A2.5 2.5 0 0 1 6 12.5v-.51a15.5 15.5 0 0 1-.5.01C3 12 1 11.4 1 10.9V9.195S2 10 5.5 10c.174 0 .338-.004.5-.008V9a2.5 2.5 0 0 1-.057-.008C5.798 8.996 5.65 9 5.5 9 3 9 1 8.4 1 7.9V6.195s.617.49 2.555.705a2.5 2.5 0 0 1 .023-.99C2.056 5.761 1 5.434 1 5c0-.55 1.69-.93 3.88-.99l.903-1.006C5.687 3.002 5.59 3 5.5 3zm5 2.236-.361.403A2.5 2.5 0 0 1 10.5 6a2.5 2.5 0 0 1 .361-.361l-.361-.403z" fill="#6c707e"/><g stroke-linejoin="round" color="#000"><path d="M8.5 12.5h4v-6H15l-4.5-5-4.5 5h2.5z" fill="#fff7f7"/><path d="M10.5 1a.5.5 0 0 0-.371.166l-4.5 5A.5.5 0 0 0 6 7h2v5.5a.5.5 0 0 0 .5.5h4a.5.5 0 0 0 .5-.5V7h2a.5.5 0 0 0 .371-.834l-4.5-5A.5.5 0 0 0 10.5 1zm0 1.246L13.879 6H12.5a.5.5 0 0 0-.5.5V12H9V6.5a.5.5 0 0 0-.5-.5H7.121z" fill="#db3b4b"/></g></svg>