<svg width="16" height="16" xmlns="http://www.w3.org/2000/svg"><path d="M4 2c-1.108 0-2 .892-2 2v8c0 1.108.892 2 2 2h2.613a5.5 5.5 0 0 1-.4-1H4c-.554 0-1-.446-1-1V4c0-.554.446-1 1-1h8c.554 0 1 .446 1 1v2.209a5.5 5.5 0 0 1 1 .395V4c0-1.108-.892-2-2-2H4z" fill="#db5c5c"/><path d="M4 3c-.554 0-1 .446-1 1v8c0 .554.446 1 1 1h2.213A5.5 5.5 0 0 1 6 11.5 5.5 5.5 0 0 1 11.5 6a5.5 5.5 0 0 1 1.5.209V4c0-.554-.446-1-1-1H4z" fill="#5e3838"/><path d="M11.5 9.5v2l1.983 1" fill="none" stroke="#ced0d6" stroke-linecap="round" stroke-linejoin="round"/><path d="M11.502 7.004A4.494 4.496 0 0 0 7.008 11.5a4.494 4.496 0 0 0 4.494 4.496 4.494 4.496 0 0 0 4.494-4.496 4.494 4.496 0 0 0-4.494-4.496zm0 .996A3.498 3.5 0 0 1 15 11.5a3.498 3.5 0 0 1-3.498 3.5 3.498 3.5 0 0 1-3.498-3.5A3.498 3.5 0 0 1 11.502 8z" fill="#ced0d6"/></svg>