<svg width="16" height="16" fill="none" xmlns="http://www.w3.org/2000/svg"><path d="M3.985 8.994c-.277 0-.5.223-.5.5V9.5c0 .277.223.5.5.5l3 .006V9zm0 2.006c-.277 0-.5.223-.5.5v.006c0 .277.223.5.5.5l3 .006v-1.006zm0-3.994a.5.5 0 1 0 0 1h3v-1zm0-2.006c-.277 0-.5.223-.5.5v.006c0 .277.223.5.5.5H7.2C7.38 5.605 8 4.992 9 5H3.985zm0-1.994h6a.499.499 0 1 1 0 1h-6a.499.499 0 1 1 0-1zm-1-3c-1.099 0-2 .9-2 2v11c0 1.1.901 2.002 2 2L7.5 15c-.347-.287-.515-.694-.515-.994h-4c-.562 0-1-.437-1-1v-11a.983.983 0 0 1 1-1l8 .1a.991.991 0 0 1 1 1L12 5.333 13 6l-.015-3.894a2.018 2.018 0 0 0-2-2z" fill="#6c707e"/><path d="M9 8.5a1.5 1.5 0 0 1 2.294-1.273l4.002 2.498a1.5 1.5 0 0 1 0 2.545l-4.002 2.498A1.5 1.5 0 0 1 9 13.496zm1.765-.424A.5.5 0 0 0 10 8.5v4.996a.5.5 0 0 0 .765.424l4.002-2.498a.5.5 0 0 0 0-.848z" clip-rule="evenodd" fill="#208a3c" fill-rule="evenodd"/><path d="M10 8.5a.5.5 0 0 1 .765-.424l4.002 2.498a.5.5 0 0 1 0 .848l-4.002 2.498a.5.5 0 0 1-.765-.424z" fill="#f2fcf3"/></svg>