<svg width="16" height="16" xmlns="http://www.w3.org/2000/svg"><path d="M3.484 1.803A1.002 1.002 0 0 0 2.5 2.805v10.39a1 1 0 0 0 1.5.868l3.014-1.74A5.5 5.5 0 0 1 12.5 7a5.5 5.5 0 0 1 .277.006L4 1.938a.99.99 0 0 0-.516-.135z" color="#000" fill="#f2fcf3"/><path d="M3.484 1A1.559 1.559 0 0 0 2 2.565v10.87c0 1.183 1.27 1.953 2.25 1.362l2.795-1.688A5.5 5.5 0 0 1 7 12.5a5.5 5.5 0 0 1 .043-.599L3.75 13.89c-.354.214-.75-.026-.75-.454V2.565c0-.428.396-.668.75-.454l8.164 4.932A5.5 5.5 0 0 1 12.5 7a5.5 5.5 0 0 1 1.248.145 1.47 1.47 0 0 0-.498-.504l-9-5.438A1.393 1.393 0 0 0 3.484 1z" color="#000" fill="#208a3c"/><path d="M12.5 9a3.5 3.5 0 1 0 0 7 3.5 3.5 0 0 0 0-7zm-.5 1h1v1h-1zm0 2h1v3h-1z" fill="#3fb5e0" fill-opacity=".702"/></svg>