<svg width="16" height="16" xmlns="http://www.w3.org/2000/svg"><path d="M3.492 1.803a1.002 1.002 0 0 0-.984 1.002v10.39a1 1 0 0 0 1.5.868l2.789-1.61 2.988-4.982a2 2 0 0 1 1.715-.97 2 2 0 0 1 .557.085l-8.05-4.648a.99.99 0 0 0-.515-.135zm9.408 5.27a2 2 0 0 1 .315.398l.29.484a.987.987 0 0 0-.497-.82l-.108-.063z" color="#000" fill="#253627"/><path d="M3.492 1a1.559 1.559 0 0 0-1.484 1.565v10.87c0 1.183 1.27 1.953 2.25 1.362l1.775-1.072 1.139-1.899-3.414 2.063c-.354.214-.75-.026-.75-.454V2.565c0-.428.396-.668.75-.454l7.351 4.44a2 2 0 0 1 .391-.05 2 2 0 0 1 1.715.97l.672 1.119c.255-.686.045-1.542-.63-1.95l-9-5.437A1.393 1.393 0 0 0 3.493 1z" color="#000" fill="#57965c"/><path d="M11.5 8.5 7 16h9zm-.5 2h1V13h-1zm0 3.5h1v1h-1z" fill="#f4af3d"/></svg>