<?xml version="1.0" encoding="UTF-8"?>
<!-- Copyright 2000-2023 JetBrains s.r.o. and contributors. Use of this source code is governed by the Apache 2.0 license. -->
<svg width="17" height="16" fill="none" version="1.1" viewBox="0 0 17 16" xml:space="preserve" xmlns="http://www.w3.org/2000/svg"><path d="m7.9922 2.0098c-3.3084 1e-7 -6.002 2.6857-6.002 5.9863 0 3.3007 2.6936 5.9863 6.002 5.9863 2.9653 0 5.4354-2.1583 5.916-4.9824h-1.0117c-0.4642 2.28-2.4783 3.9902-4.9043 3.9902-2.771 0-5.0059-2.2309-5.0059-4.9941 0-2.7632 2.2348-4.9941 5.0059-4.9941 1.3855 0 2.6379 0.55791 3.543 1.4609 0.43957 0.43858 0.79503 0.9599 1.0469 1.5371h1.0684c-0.302-0.84886-0.78983-1.6099-1.416-2.2344-1.0869-1.084-2.588-1.7559-4.2422-1.7559zm6.0078-0.50977c0-0.27614-0.2239-0.5-0.5-0.5s-0.5 0.22386-0.5 0.5v3.1824c-1.0744-1.616-2.9123-2.6824-5-2.6824-3.3137 0-6 2.6863-6 6 0 3.3137 2.6863 6 6 6v-1c-2.7614 0-5-2.2386-5-5 0-2.7614 2.2386-5 5-5 1.6353 0 3.0878 0.78495 4.0005 2h-2.5005c-0.27614 0-0.5 0.22386-0.5 0.5s0.22386 0.5 0.5 0.5h4.5z" color="#000000" fill="#ced0d6" stroke-width=".99918" style="-inkscape-stroke:none"/></svg>
