<svg width="16" height="16" fill="none" version="1.1" viewBox="0 0 16 16" xml:space="preserve" xmlns="http://www.w3.org/2000/svg"><path d="m1.5 1c-0.27613 2.77e-5 -0.49997 0.22387-0.5 0.5l3e-7 12c2.76e-5 0.27613 0.22387 0.49997 0.5 0.5h13c0.27613-2.8e-5 0.49997-0.22387 0.5-0.5v-9.707c-2.5e-5 -0.1326-0.05272-0.25976-0.14648-0.35352l-2.293-2.293c-0.093756-0.093768-0.22092-0.14646-0.35352-0.14648zm0.5 1h3v2.5c2.76e-5 0.27613 0.22387 0.49997 0.5 0.5h5c0.27613-2.76e-5 0.49997-0.22387 0.5-0.5v-2.5h1l2 2v9h-2v-4.5c-2.8e-5 -0.27613-0.22387-0.49997-0.5-0.5h-7c-0.27613 2.8e-5 -0.49997 0.22387-0.5 0.5l1e-7 4.5h-2zm4 0h4v2h-4zm-1 7h6v4h-6z" color="#000000" fill="#ced0d6" stroke-linejoin="round" style="-inkscape-stroke:none"/></svg>
