<svg width="16" height="16" xmlns="http://www.w3.org/2000/svg"><path d="M5.5 0C3.55 0 0 .29 0 2v8.99c0 1.026 1.438 1.585 3.103 1.838a2.5 2.5 0 0 1 .502-.947C2.063 11.68 1 11.265 1 10.9V9.198s1 .805 4.5.805c.428 0 .817-.012 1.174-.033a2.5 2.5 0 0 1 .058-.239l.881-.88C6.984 8.944 6.266 9 5.5 9 3 9 1 8.4 1 7.9V6.195S2 7 5.5 7s4.5-.805 4.5-.805v.27l.732-.733A2.5 2.5 0 0 1 11 5.514V2c0-1.6-3.55-2-5.5-2zm0 1c2.485 0 4.5.4 4.5 1S7.985 3 5.5 3 1 2.6 1 2s2.015-1 4.5-1zM1 3.195S2 4 5.5 4s4.5-.805 4.5-.805V4.9C10 5.4 8 6 5.5 6S1 5.4 1 4.9V3.195z" fill="#6c707e"/><path d="m8.5 15.5 2-2-2-2m4 0-2-2 2-2m3 2H11m-1 4H5.5z" fill="none" stroke="#3574f0" stroke-linecap="round" stroke-linejoin="round"/></svg>