<svg width="16" height="16" fill="none" xmlns="http://www.w3.org/2000/svg"><path d="M5.484 1.865a1 1 0 0 0-.984 1v2.139a6.5 6.498 0 0 1 6.494 6.238L15 8.928a1 1 0 0 0 0-1.733L6 2a.99.99 0 0 0-.516-.135z" fill="#fffaeb"/><path d="M5.486 1.063A1.56 1.56 0 0 0 4 2.627v2.408A6.5 6.5 0 0 1 4.5 5a6.5 6.5 0 0 1 .5.022V2.627c0-.428.396-.667.75-.453l9 5.435a.52.52 0 0 1 0 .907l-3.79 2.289a6.5 6.5 0 0 1 .04.695 6.5 6.5 0 0 1-.037.512l4.287-2.59c.98-.591.98-2.127 0-2.719l-9-5.437a1.387 1.387 0 0 0-.764-.203z" fill="#ffaf0f"/><path d="M4.498 9.5v2l1.983 1" stroke="#6c707e" stroke-linecap="round" stroke-linejoin="round"/><path d="M4.5 7.004A4.494 4.496 0 0 0 .006 11.5 4.494 4.496 0 0 0 4.5 15.996 4.494 4.496 0 0 0 8.994 11.5 4.494 4.496 0 0 0 4.5 7.004zM4.5 8a3.498 3.5 0 0 1 3.498 3.5A3.498 3.5 0 0 1 4.5 15a3.498 3.5 0 0 1-3.498-3.5A3.498 3.5 0 0 1 4.5 8z" fill="#6c707e"/></svg>