<svg width="16" height="16" version="1.1" viewBox="0 0 16 16" xmlns="http://www.w3.org/2000/svg" fill="none">
    <path d="m10 1a3.5 3.5 0 0 0-3.5 3.5 3.5 3.5 0 0 0 3.5 3.5 3.5 3.5 0 0 0 2.0566-0.67773l2.3516 2.2695s0.39102 0.40781 0.79102 0.0078125c0.4-0.4-0.007813-0.79102-0.007813-0.79102l-2.3535-2.2715a3.5 3.5 0 0 0 0.66211-2.0371 3.5 3.5 0 0 0-3.5-3.5zm0 1a2.5 2.5 0 0 1 2.5 2.5 2.5 2.5 0 0 1-2.5 2.5 2.5 2.5 0 0 1-2.5-2.5 2.5 2.5 0 0 1 2.5-2.5zm-4.9199 0.0625c-1.8858 0.1362-4.0801 0.59949-4.0801 1.9473v8.9902c0 1.5127 3.125 2.0129 5.5 2.0098 2.375-0.0032 5.5-0.5 5.5-2v-3.4004a5.5 5.5 0 0 1-1 0.28711v0.013672c0 0.5-2 1.0996-4.5 1.0996s-4.5-0.59963-4.5-1.0996v-1.7051s1 0.80469 4.5 0.80469c0.12755 0 0.24249-0.0037908 0.36328-0.0058594a5.5 5.5 0 0 1-1.1035-1.0137c-2.142-0.10269-3.7598-0.63069-3.7598-1.0801v-1.7051s0.64664 0.51494 2.6953 0.7207a5.5 5.5 0 0 1-0.16602-1.0137c-1.4929-0.15152-2.5293-0.47388-2.5293-0.90234 0-0.44393 1.1125-0.77586 2.6934-0.91992a5.5 5.5 0 0 1 0.38672-1.0273zm-3.0801 9.1465s1 0.80469 4.5 0.80469 4.5-0.80469 4.5-0.80469v1.7012c0 0.5-2 1.0996-4.5 1.0996s-4.5-0.59963-4.5-1.0996v-1.7012z" fill="#6C707E"/></svg>
