<svg width="20" height="20" xmlns="http://www.w3.org/2000/svg"><path d="M16.208.503a.636.636 0 0 0-.562.524L14.256 8.9l-.549-2.194a.636.636 0 0 0-.616-.482H8a.636.636 0 0 0-.636.636.636.636 0 0 0 .636.636h4.594l1.153 4.606a.636.636 0 0 0 1.243-.045l1.521-8.613.443 1.108a.636.636 0 0 0 .591.4h1.273a.636.636 0 0 0 .636-.636.636.636 0 0 0-.636-.636h-.843L16.865.9a.636.636 0 0 0-.657-.397zM8 2.408c-2.483 0-7 .369-7 2.544v11.435c0 1.924 3.977 2.56 7 2.557 3.023-.005 7-.636 7-2.544v-1.352a3.182 3.18 0 0 1-1.273.013v1.212c0 .636-2.545 1.399-5.727 1.399-3.182 0-5.727-.763-5.727-1.4V14.11S3.545 15.133 8 15.133c2.311 0 3.761-.275 4.626-.54a3.182 3.18 0 0 1-1.027-1.09c-.98.211-2.23.353-3.599.353-3.182 0-5.727-.763-5.727-1.4v-2.168S3.545 11.312 8 11.312c1.17 0 2.115-.07 2.881-.174l-.273-1.098H8c-3.182 0-5.727-.763-5.727-1.399V6.472s.644.513 2.592.813a3.182 3.18 0 0 1-.047-.425 3.182 3.18 0 0 1 .12-.82c-1.6-.213-2.665-.597-2.665-1.088C2.273 4.189 4.837 3.68 8 3.68h4.591l.12-.68C11.223 2.554 9.324 2.407 8 2.407z" fill="#ced0d6"/></svg>