<svg width="16" height="16" xmlns="http://www.w3.org/2000/svg" fill="none"><path d="M10 1a3.5 3.5 0 0 0-3.5 3.5A3.5 3.5 0 0 0 10 8a3.5 3.5 0 0 0 2.057-.678l2.351 2.27s.391.408.791.008c.4-.4-.008-.791-.008-.791l-2.353-2.272A3.5 3.5 0 0 0 13.5 4.5 3.5 3.5 0 0 0 10 1zm0 1a2.5 2.5 0 0 1 2.5 2.5A2.5 2.5 0 0 1 10 7a2.5 2.5 0 0 1-2.5-2.5A2.5 2.5 0 0 1 10 2zm-4.92.063C3.194 2.199 1 2.662 1 4.01V13c0 1.513 3.125 2.013 5.5 2.01 2.375-.003 5.5-.5 5.5-2v-3.4a5.5 5.5 0 0 1-1 .287v.013c0 .5-2 1.1-4.5 1.1S2 10.41 2 9.91V8.205s1 .805 4.5.805c.128 0 .242-.004.363-.006A5.5 5.5 0 0 1 5.76 7.99C3.618 7.888 2 7.36 2 6.91V5.205s.647.515 2.695.72a5.5 5.5 0 0 1-.166-1.013C3.036 4.76 2 4.438 2 4.01c0-.444 1.112-.776 2.693-.92a5.5 5.5 0 0 1 .387-1.028zM2 11.209s1 .805 4.5.805 4.5-.805 4.5-.805v1.701c0 .5-2 1.1-4.5 1.1s-4.5-.6-4.5-1.1v-1.7z" fill="#6C707E"/></svg>