<svg width="16" height="16" xmlns="http://www.w3.org/2000/svg"><path d="M12.949.502a.5.5 0 0 0-.441.412l-1.092 6.19-.432-1.725A.5.5 0 0 0 10.5 5h-4a.5.5 0 0 0-.5.5.5.5 0 0 0 .5.5h3.61l.905 3.621a.5.5 0 0 0 .977-.035l1.195-6.772.348.872A.5.5 0 0 0 14 4h1a.5.5 0 0 0 .5-.5.5.5 0 0 0-.5-.5h-.662L13.465.815a.5.5 0 0 0-.516-.313zM6.499 2C4.55 2 1 2.29 1 4v8.99c0 1.513 3.126 2.013 5.5 2.01 2.376-.003 5.5-.5 5.5-2v-1.063a2.5 2.5 0 0 1-1 .01v.953c0 .5-2 1.1-4.5 1.1S2 13.4 2 12.9v-1.7s1 .804 4.5.804c1.817 0 2.956-.216 3.636-.424a2.5 2.5 0 0 1-.807-.857A13.79 13.79 0 0 1 6.5 11C4 11 2 10.4 2 9.9V8.195S3 9 6.5 9c.92 0 1.662-.055 2.264-.137L8.549 8h-2.05C4 8 2 7.4 2 6.9V5.195s.507.403 2.038.639A2.5 2.5 0 0 1 4 5.5a2.5 2.5 0 0 1 .094-.645C2.837 4.688 2 4.385 2 4c0-.6 2.015-1 4.5-1h3.607l.094-.535C9.032 2.115 7.541 2 6.5 2z" fill="#ced0d6"/></svg>