<svg width="20" height="20" version="1.1" viewBox="0 0 20 20"  xmlns="http://www.w3.org/2000/svg"><path d="m6.1929 2.3624c-2.4001 0.17465-5.1929 0.76876-5.1929 2.497v11.528c0 1.9397 3.9773 2.5811 7 2.5771 3.0227-0.004104 7-0.64114 7-2.5646v-4.3603a7 7.0526 0 0 1-1.2727 0.36816v0.01753c0 0.64114-2.5455 1.41-5.7273 1.41s-5.7273-0.76888-5.7273-1.41v-2.1864s1.2727 1.0318 5.7273 1.0318c0.16234 0 0.30862-0.0049 0.46236-0.0075a7 7.0526 0 0 1-1.4045-1.2999c-2.7262-0.13168-4.7852-0.80875-4.7852-1.385v-2.1864s0.82298 0.6603 3.4304 0.92414a7 7.0526 0 0 1-0.2113-1.2999c-1.9001-0.19429-3.2191-0.60765-3.2191-1.1571 0-0.56925 1.4159-0.99487 3.428-1.1796a7 7.0526 0 0 1 0.49219-1.3173zm-3.9201 11.728s1.2727 1.0318 5.7273 1.0318c4.4545 0 5.7273-1.0318 5.7273-1.0318v2.1814c0 0.64114-2.5455 1.41-5.7273 1.41s-5.7273-0.76888-5.7273-1.41z" fill="#ced0d6"/><path transform="matrix(1.2727,0,0,1.2823,2.9091,1)" d="m7.5006 0a3.5 3.5 0 0 0-3.5005 3.5002 3.5 3.5 0 0 0 3.5005 3.5002 3.5 3.5 0 0 0 2.0564-0.6778l2.3511 2.2695s0.39187 0.40762 0.79187 0.0076157c0.4-0.4-0.007673-0.79203-0.007673-0.79203l-2.3557-2.2725a3.5 3.5 0 0 0 0.66296-2.0349 3.5 3.5 0 0 0-3.499-3.5002zm0 1.0007a2.5 2.5 0 0 1 2.4999 2.4995 2.5 2.5 0 0 1-2.4999 2.4995 2.5 2.5 0 0 1-2.4999-2.4995 2.5 2.5 0 0 1 2.4999-2.4995z" fill="#3592c4"/></svg>
