<svg width="20" height="20" xmlns="http://www.w3.org/2000/svg" fill="none"><path d="M14.363-.008a.636.63 0 0 0-.635.621c0 1.063-.55 2.19-1.402 3.04-.852.849-1.984 1.394-3.033 1.394a.637.63 0 0 0 0 1.262c1.05 0 2.18.545 3.033 1.392.852.847 1.402 1.972 1.402 3.024a.636.63 0 0 0 1.272 0c0-1.083.55-2.203 1.404-3.041.855-.84 1.994-1.375 3.07-1.375a.637.63 0 0 0 0-1.262c-1.07 0-2.21-.546-3.066-1.395C15.55 2.803 15 1.676 15 .613a.636.63 0 0 0-.637-.62zM8 2.525c-2.483 0-7 .365-7 2.522v11.34c0 1.908 3.977 2.539 7 2.535 3.022-.004 7-.63 7-2.521v-2.657a3.182 3.154 0 0 1-2.455-.468c-1.044.341-2.683.601-4.545.601-3.182 0-5.727-.756-5.727-1.387v-2.15S3.545 11.354 8 11.354c1.347 0 2.399-.091 3.217-.22a3.182 3.154 0 0 1-.055-.41c0-.15-.109-.494-.336-.84-.833.128-1.795.21-2.826.21-3.182 0-5.727-.758-5.727-1.389v-2.15s1.038.82 4.49.984a3.182 3.154 0 0 1-.558-1.289c-2.283-.152-3.932-.596-3.932-1.203 0-.655 1.925-1.121 4.496-1.234A3.182 3.154 0 0 1 9.066 2.55c-.38-.02-.741-.025-1.066-.025zm6.367.416c.304.582.67 1.138 1.14 1.604.469.464 1.03.828 1.614 1.129-.584.295-1.143.653-1.611 1.113-.474.465-.848 1.023-1.153 1.61-.302-.575-.665-1.127-1.129-1.588-.467-.465-1.026-.83-1.61-1.131.583-.301 1.139-.667 1.606-1.133.468-.466.84-1.022 1.143-1.604zM2.273 14.128S3.545 15.144 8 15.144c4.454 0 5.726-1.016 5.726-1.016v2.147c0 .63-2.545 1.387-5.726 1.387-3.182 0-5.727-.756-5.727-1.387v-2.147z" fill="#CED0D6"/></svg>