<svg width="20" height="20" version="1.1" viewBox="0 0 20 20"  xmlns="http://www.w3.org/2000/svg"><path transform="matrix(1.2727 0 0 1.2827 -.27271 -.28772)" d="m5.0801 2.0625c-1.8858 0.1362-4.0801 0.59952-4.0801 1.9473v8.9902c0 1.5127 3.125 2.0129 5.5 2.0098 2.375-0.0032 5.5-0.5 5.5-2v-3.4004a5.5 5.5 0 0 1-1 0.28711v0.013672c0 0.5-2 1.0996-4.5 1.0996s-4.5-0.59962-4.5-1.0996v-1.7051s1 0.80469 4.5 0.80469c0.12755 0 0.24249-0.00379 0.36328-0.00586a5.5 5.5 0 0 1-1.1035-1.0137c-2.142-0.10269-3.7598-0.63071-3.7598-1.0801v-1.7051s0.64663 0.51494 2.6953 0.7207a5.5 5.5 0 0 1-0.16602-1.0137c-1.4929-0.15152-2.5293-0.47388-2.5293-0.90234 0-0.44393 1.1125-0.77586 2.6934-0.91992a5.5 5.5 0 0 1 0.38672-1.0273zm-3.0801 9.1465s1 0.80469 4.5 0.80469 4.5-0.80469 4.5-0.80469v1.7012c0 0.5-2 1.0996-4.5 1.0996s-4.5-0.59962-4.5-1.0996z" fill="#6c707e"/><path transform="matrix(1.2727 0 0 1.2827 2.909 .99498)" d="m7.5006-6.5438e-4a3.5 3.5 0 0 0-3.5005 3.5006 3.5 3.5 0 0 0 3.5005 3.5006 3.5 3.5 0 0 0 2.0549-0.67911l2.3526 2.2703s0.39187 0.40761 0.79187 0.0076133c0.4-0.4-0.007673-0.79179-0.007673-0.79179l-2.3557-2.2718a3.5 3.5 0 0 0 0.66296-2.0358 3.5 3.5 0 0 0-3.499-3.5006zm0 1.0004a2.5 2.5 0 0 1 2.4999 2.5002 2.5 2.5 0 0 1-2.4999 2.5002 2.5 2.5 0 0 1-2.4999-2.5002 2.5 2.5 0 0 1 2.4999-2.5002z" fill="#389fd6"/></svg>
