<svg width="20" height="20" version="1.1" viewBox="0 0 20 20"  xmlns="http://www.w3.org/2000/svg"><path d="m8 2.5248c-2.4828-4.21e-5 -7 0.36547-7 2.5228v11.34c0 1.9081 3.9773 2.539 7 2.5351 3.0227-0.004004 7-0.63069 7-2.5228v-2.6558a3.1821 3.1537 0 0 1-2.456-0.46809c-1.0435 0.34143-2.6819 0.60112-4.544 0.60112-3.1818 0-5.7273-0.75634-5.7273-1.387v-2.1508s1.2727 1.015 5.7273 1.015c1.3474 0 2.3986-0.0923 3.2166-0.22172a3.1821 3.1537 0 0 1-0.05469-0.40897c0-0.15152-0.10841-0.49291-0.33558-0.8401-0.8325 0.12893-1.7952 0.20941-2.8263 0.20941-3.1818 0-5.7273-0.75634-5.7273-1.387v-2.1508s1.0399 0.8185 4.4918 0.98299a3.1821 3.1537 0 0 1-0.5593-1.2885c-2.283-0.15253-3.9325-0.59559-3.9325-1.2022 0-0.65558 1.9261-1.1213 4.4968-1.2343a3.1821 3.1537 0 0 1 2.2969-1.2614c-0.37996-0.019551-0.74145-0.027094-1.0664-0.0271zm-5.7273 11.604s1.2727 1.015 5.7273 1.015c4.4545 0 5.7273-1.015 5.7273-1.015v2.1459c0 0.63069-2.5455 1.387-5.7273 1.387-3.1818 0-5.7273-0.75634-5.7273-1.387z" fill="#ced0d6"/><path d="m14.364-0.0078125a0.63643 0.63075 0 0 0-0.63636 0.62084c0 1.0626-0.54966 2.191-1.402 3.0401-0.85233 0.84914-1.9837 1.3944-3.0327 1.3944a0.63643 0.63075 0 0 0 0 1.2614c1.0503 0 2.1805 0.54497 3.0327 1.392 0.85213 0.84699 1.402 1.9715 1.402 3.0229a0.63643 0.63075 0 0 0 1.2727 0c0-1.0828 0.54965-2.2012 1.4045-3.0401 0.85483-0.83893 1.9932-1.3747 3.07-1.3747a0.63643 0.63075 0 0 0 0-1.2614c-1.0708 0-2.2106-0.54547-3.0675-1.3944-0.85684-0.84895-1.407-1.9777-1.407-3.0401a0.63643 0.63075 0 0 0-0.63636-0.62084zm0.0025 2.949c0.30376 0.5818 0.67088 1.1381 1.141 1.6038 0.46806 0.46375 1.0293 0.82793 1.6133 1.1283-0.58344 0.29555-1.1425 0.65399-1.6108 1.1136-0.47397 0.46515-0.84879 1.0223-1.1534 1.6088-0.30191-0.57408-0.66494-1.1257-1.1286-1.5866-0.46779-0.46497-1.0253-0.82997-1.6083-1.1308 0.58243-0.30116 1.1383-0.66752 1.6058-1.1333 0.46774-0.46598 0.83821-1.0218 1.141-1.6038z" color="#000000" fill="#f2c55c" stroke-linecap="round" stroke-linejoin="round" style="paint-order:fill markers stroke"/></svg>
