<svg width="16" height="16" xmlns="http://www.w3.org/2000/svg" fill="none"><path d="M11.5-.008a.5.5 0 0 0-.5.492c0 .843-.432 1.737-1.102 2.41C9.228 3.569 8.34 4 7.516 4a.5.5 0 0 0 0 1c.825 0 1.713.432 2.382 1.104C10.568 6.775 11 7.667 11 8.5a.5.5 0 0 0 1 0c0-.858.432-1.745 1.103-2.41C13.776 5.425 14.67 5 15.517 5a.5.5 0 0 0 0-1c-.842 0-1.737-.432-2.41-1.105C12.431 2.222 12 1.327 12 .485a.5.5 0 0 0-.5-.493zM6.5 2C4.55 2 1 2.29 1 4v8.99c0 1.513 3.125 2.013 5.5 2.01 2.375-.003 5.5-.5 5.5-2v-2.106a2.5 2.5 0 0 1-1.93-.37c-.82.27-2.107.476-3.57.476C4 11 2 10.4 2 9.9V8.195S3 9 6.5 9c1.059 0 1.885-.073 2.527-.176a2.5 2.5 0 0 1-.043-.324c0-.12-.085-.39-.263-.666C8.067 7.936 7.31 8 6.5 8 4 8 2 7.4 2 6.9V5.195s.817.65 3.53.78a2.5 2.5 0 0 1-.44-1.022C3.296 4.833 2 4.481 2 4c0-.52 1.513-.889 3.533-.979a2.5 2.5 0 0 1 1.805-1A16.26 16.26 0 0 0 6.5 2zm5.002.33c.239.461.527.902.896 1.272.368.367.81.656 1.268.894-.458.234-.898.519-1.266.883-.372.369-.666.81-.906 1.275-.237-.455-.522-.892-.886-1.257A5.076 5.076 0 0 0 9.344 4.5a5.07 5.07 0 0 0 1.262-.898c.367-.37.658-.81.896-1.272zM2 11.2s1 .804 4.5.804 4.5-.805 4.5-.805V12.9c0 .5-2 1.1-4.5 1.1S2 13.4 2 12.9v-1.7z" fill="#6C707E"/></svg>