<svg width="20" height="20" version="1.1" viewBox="0 0 20 20" xmlns="http://www.w3.org/2000/svg" fill="none">
    <path d="m14.363-0.0078125a0.63643 0.63075 0 0 0-0.63476 0.62109c0 1.0626-0.55 2.19-1.4023 3.0391-0.85233 0.84914-1.9842 1.3945-3.0332 1.3945a0.63654 0.63086 0 0 0 0 1.2617c1.0503 0 2.181 0.54555 3.0332 1.3926 0.85213 0.84699 1.4023 1.972 1.4023 3.0234a0.63643 0.63075 0 0 0 1.2715 0c0-1.0828 0.54945-2.2021 1.4043-3.041 0.85483-0.83893 1.9935-1.375 3.0703-1.375a0.63654 0.63086 0 0 0 0-1.2617c-1.0708 0-2.2095-0.5456-3.0664-1.3945-0.85684-0.84895-1.4082-1.9767-1.4082-3.0391a0.63643 0.63075 0 0 0-0.63672-0.62109zm-6.3633 2.5332c-2.4828-4.21e-5 -7 0.36416-7 2.5215v11.34c0 1.9081 3.9773 2.5391 7 2.5352 3.0227-0.004004 7-0.62938 7-2.5215v-2.6562a3.1821 3.1537 0 0 1-2.4551-0.46875c-1.0435 0.34143-2.6828 0.60156-4.5449 0.60156-3.1818 0-5.7266-0.75606-5.7266-1.3867v-2.1504s1.272 1.0137 5.7266 1.0137c1.3474 0 2.3988-0.091284 3.2168-0.2207a3.1821 3.1537 0 0 1-0.054688-0.4082c0-0.15152-0.10877-0.49461-0.33594-0.8418-0.8325 0.12893-1.7951 0.21094-2.8262 0.21094-3.1818 0-5.7266-0.75801-5.7266-1.3887v-2.1504s1.0383 0.81989 4.4902 0.98438a3.1821 3.1537 0 0 1-0.55859-1.2891c-2.283-0.15253-3.9316-0.59652-3.9316-1.2031 0-0.65558 1.9254-1.1214 4.4961-1.2344a3.1821 3.1537 0 0 1 2.2969-1.2617c-0.37996-0.019551-0.74146-0.025385-1.0664-0.025391zm6.3672 0.41602c0.30376 0.5818 0.6705 1.1378 1.1406 1.6035 0.46806 0.46375 1.0293 0.82854 1.6133 1.1289-0.58344 0.29555-1.143 0.65367-1.6113 1.1133-0.47397 0.46515-0.84773 1.0229-1.1523 1.6094-0.30191-0.57408-0.66525-1.127-1.1289-1.5879-0.46779-0.46497-1.0264-0.83003-1.6094-1.1309 0.58243-0.30116 1.138-0.66703 1.6055-1.1328 0.46774-0.46598 0.83979-1.0215 1.1426-1.6035zm-12.094 11.187s1.272 1.0156 5.7266 1.0156c4.4545 0 5.7266-1.0156 5.7266-1.0156v2.1465c0 0.63069-2.5448 1.3867-5.7266 1.3867-3.1818 0-5.7266-0.75606-5.7266-1.3867v-2.1465z" fill="#6C707E"/>
</svg>
