<svg width="20" height="20" version="1.1" viewBox="0 0 20 20" xmlns="http://www.w3.org/2000/svg">
 <path d="m16.208 0.50266a0.63643 0.63606 0 0 0-0.56179 0.5242l-1.3896 7.8729-0.54936-2.1937a0.63643 0.63606 0 0 0-0.61648-0.48196h-5.0909a0.63636 0.63599 0 0 0-0.63636 0.63599 0.63636 0.63599 0 0 0 0.63636 0.63599h4.5937l1.1534 4.606a0.63643 0.63606 0 0 0 1.2429-0.04472l1.5213-8.6132 0.44247 1.108a0.63643 0.63606 0 0 0 0.59162 0.39998h1.2727a0.63636 0.63599 0 0 0 0.63636-0.63599 0.63636 0.63599 0 0 0-0.63636-0.63599h-0.84268l-1.1112-2.78a0.63643 0.63606 0 0 0-0.65625-0.3975zm-8.2081 1.9055c-2.4828-4.25e-5 -7 0.36855-7 2.544v11.435c0 1.9241 3.9773 2.5603 7 2.5564 3.0227-0.004071 7-0.63599 7-2.544v-1.3515a3.1821 3.1802 0 0 1-1.2727 0.01247v1.2124c0 0.63595-2.5455 1.3986-5.7273 1.3986-3.1818 0-5.7273-0.76271-5.7273-1.3987v-2.1639s1.2727 1.0236 5.7273 1.0236c2.3114 0 3.7612-0.27419 4.6261-0.5391a3.1821 3.1802 0 0 1-1.0266-1.0906c-0.98121 0.21154-2.2309 0.35278-3.5994 0.35278-3.1818 0-5.7273-0.76271-5.7273-1.3987v-2.1688s1.2727 1.0236 5.7273 1.0236c1.17 0 2.1154-0.06987 2.881-0.1739l-0.27344-1.0981h-2.6076c-3.1818 0-5.7273-0.76271-5.7273-1.3987v-2.1688s0.64401 0.51292 2.5927 0.81238a3.1818 3.18 0 0 1-0.04723-0.42482 3.1818 3.18 0 0 1 0.11932-0.81983c-1.5996-0.21265-2.6648-0.59709-2.6648-1.0881 0-0.76319 2.5642-1.272 5.7273-1.272h4.5913l0.11932-0.68071c-1.4876-0.44381-3.3864-0.59126-4.7106-0.59127z" fill="#ced0d6"/>
</svg>
