<svg width="20" height="20" xmlns="http://www.w3.org/2000/svg" fill="none"><path d="M12.455 1A4.454 4.488 0 0 0 8 5.488a4.454 4.488 0 0 0 4.455 4.489 4.454 4.488 0 0 0 2.617-.87l2.992 2.91s.5.523 1.008.01c.51-.512-.01-1.015-.01-1.015l-2.998-2.914a4.454 4.488 0 0 0 .844-2.61A4.454 4.488 0 0 0 12.455 1zm0 1.283a3.182 3.206 0 0 1 3.182 3.205 3.182 3.206 0 0 1-3.182 3.205 3.182 3.206 0 0 1-3.182-3.205 3.182 3.206 0 0 1 3.182-3.205zm-6.262.08C3.793 2.538 1 3.131 1 4.86v11.527c0 1.94 3.977 2.582 7 2.578 3.023-.004 7-.64 7-2.564V12.04a7 7.053 0 0 1-1.273.369v.017c0 .642-2.545 1.41-5.727 1.41s-5.727-.768-5.727-1.41v-2.187S3.545 11.27 8 11.27c.162 0 .309-.005.463-.008a7 7.053 0 0 1-1.405-1.3c-2.726-.132-4.785-.809-4.785-1.385V6.392s.823.66 3.43.924a7 7.053 0 0 1-.211-1.3c-1.9-.195-3.219-.608-3.219-1.157 0-.57 1.416-.995 3.428-1.18a7 7.053 0 0 1 .492-1.316zM2.273 14.09S3.545 15.123 8 15.123s5.727-1.033 5.727-1.033v2.182c0 .641-2.545 1.41-5.727 1.41s-5.727-.769-5.727-1.41V14.09z" fill="#CED0D6"/></svg>