<svg width="20" height="20" version="1.1" viewBox="0 0 20 20" xmlns="http://www.w3.org/2000/svg">
 <path d="m8.0074 1c-2.4853-4.601e-5 -7.0074 0.39871-7.0074 2.7522v12.371c0 2.0816 3.9815 2.7699 7.0074 2.7656 0.21125-3.05e-4 0.43075-0.0087 0.64948-0.01612l-0.00248-1.3734c-0.21271 0.0077-0.4272 0.01344-0.64699 0.01344-3.1852 0-5.7333-0.82515-5.7333-1.5132v-2.341s1.2741 1.1073 5.7333 1.1073c0.22377 0 0.43523-0.0023 0.64201-0.0081v-1.3868c-0.2111 0.0075-0.42394 0.01344-0.64201 0.01344-3.1852 0-5.7333-0.82515-5.7333-1.5132v-2.3464s1.2741 1.1073 5.7333 1.1073c0.22276 0 0.43375-0.0023 0.63953-0.0081a3.1854 3.4405 0 0 1 0.27621-1.3949c-0.29885 0.015018-0.60278 0.026876-0.91574 0.026876-3.1852 0-5.7333-0.82515-5.7333-1.5132v-2.3464s1.2741 1.1073 5.7333 1.1073c4.4593 0 5.7333-1.1073 5.7333-1.1073v2.3464c0 0.033531-8e-3 0.068061-0.01992 0.10213l1.294 0.83856v-4.9319c5e-6 -2.2018-4.5219-2.7522-7.0074-2.7522zm0 1.3761c3.1665 0 5.7333 0.55044 5.7333 1.3761s-2.5669 1.3761-5.7333 1.3761c-3.1665 0-5.7333-0.55044-5.7333-1.3761s2.5669-1.3761 5.7333-1.3761zm4.1532 7.8051c-0.60917 0.03871-0.968 0.65741-0.968 1.2767v6.7434c0 0.82245 0.63803 1.5148 1.6573 1.102l5.3501-3.3032c0.89185-0.68095 0.89185-1.6601 0-2.341l-5.3501-3.3005c-0.25481-0.13761-0.48624-0.19029-0.68929-0.17739zm0.30608 1.5535 4.9694 3.0908-4.9694 3.1016z" fill="#ced0d6"/>
</svg>
