<svg width="16" height="16" xmlns="http://www.w3.org/2000/svg"><path d="M6.5 1C4.55 1 1 1.29 1 3v8.99c0 1.513 3.125 2.013 5.5 2.01.166 0 .338-.006.51-.012l-.002-.998c-.167.006-.335.01-.508.01C4 13 2 12.4 2 11.9v-1.7s1 .804 4.5.804c.176 0 .342-.002.504-.006V9.99c-.166.006-.333.01-.504.01C4 10 2 9.4 2 8.9V7.195S3 8 6.5 8c.175 0 .34-.002.502-.006a2.5 2.5 0 0 1 .217-1.014c-.235.011-.473.02-.719.02C4 7 2 6.4 2 5.9V4.195S3 5 6.5 5s4.5-.805 4.5-.805V5.9c0 .025-.006.05-.016.075L12 6.584V3c0-1.6-3.55-2-5.5-2zm0 1c2.485 0 4.5.4 4.5 1S8.985 4 6.5 4 2 3.6 2 3s2.015-1 4.5-1zm3.26 5.672C9.282 7.7 9 8.15 9 8.6v4.9c0 .598.5 1.1 1.3.8l4.2-2.4c.7-.494.7-1.206 0-1.7l-4.2-2.4c-.2-.1-.38-.137-.54-.128zM10 8.8l3.9 2.246L10 13.3V8.8z" fill="#6c707e"/></svg>