<svg width="20" height="20" version="1.1" viewBox="0 0 20 20"  xmlns="http://www.w3.org/2000/svg"><path d="m8.0074 1c-2.4853-4.601e-5 -7.0074 0.39872-7.0074 2.7523v12.372c0 2.0817 3.9815 2.77 7.0074 2.7658 0.21125-3.06e-4 0.43075-0.0087 0.64948-0.01613l-0.00248-1.3735c-0.21271 0.0077-0.4272 0.01349-0.64699 0.01349-3.1852 0-5.7333-0.82516-5.7333-1.5132v-2.3411s1.2741 1.1074 5.7333 1.1074c0.22377 0 0.43524-0.0023 0.64202-0.0081v-1.3869c-0.2111 0.0076-0.42395 0.01344-0.64202 0.01344-3.1852 0-5.7333-0.82516-5.7333-1.5132v-2.3465s1.2741 1.1074 5.7333 1.1074c0.22276 0 0.43375-0.0024 0.63952-0.0081a3.1854 3.4406 0 0 1 0.27621-1.395c-0.29885 0.015019-0.60278 0.026877-0.91574 0.026877-3.1852 0-5.7333-0.82516-5.7333-1.5132v-2.3465s1.2741 1.1074 5.7333 1.1074c4.4593 0 5.7333-1.1074 5.7333-1.1074v2.3465c0 0.033532-8e-3 0.068064-0.01991 0.10214l1.294 0.8386v-4.9321c-4e-6 -2.2018-4.5219-2.7523-7.0074-2.7523zm0 1.3761c3.1665 0 5.7333 0.55046 5.7333 1.3761 0 0.82569-2.5669 1.3761-5.7333 1.3761-3.1665 0-5.7333-0.55046-5.7333-1.3761 0-0.82569 2.5669-1.3761 5.7333-1.3761z" fill="#6c707e"/><path d="m12.849 10.358c-1.0193-0.55046-1.6563 0.27523-1.6563 1.1009v6.7431c0 0.82248 0.63704 1.5138 1.6563 1.1009l5.3511-3.3027c0.89185-0.68097 0.89185-1.6585 0-2.3394zm-0.38222 1.3761 4.9689 3.0921-4.9689 3.1006z" fill="#62b543"/></svg>
