<svg width="16" height="16" xmlns="http://www.w3.org/2000/svg"><path fill="#73a9d8" fill-rule="evenodd" d="M0 2.047h16v3H0z"/><path d="M2 5.847h3v5.2H2z" fill="#999"/><path d="M3.8 8.58 2 10.447l.6.622L5 8.579 2.6 6.092l-.6.622zM1 5h14v3H8v2s-1.078.334-1 3c-1.6 0-6 .016-6 .016z" fill="#fff"/><path d="M0 5v9l7.222.03c-.185-.397-.218-.84-.222-1.03H1V5zM15 5h.984v5.016H15z" fill="#999"/><path d="M10.997 15.088h-.223c-.22 0-.572-.038-.777-.091v1.01h-1V14.51c-.576-.467-.9-1.172-.9-1.968 0-.797.324-1.502.9-1.969V9.007h1v1.081c.205-.053.556-.091.777-.091h.223v-.99h1v.99h.685c.108 0 .21.02.315.032V9.007h1v1.346c.415.243.71.598.932 1.026l.893-.894.675.675-1.282 1.283c.001.034.006.03.006.064l-.005.07 1.28 1.276-.674.676-.868-.87c-.222.45-.527.821-.957 1.073v1.275h-1v-.952c-.106.014-.207.033-.315.033h-.685v.919h-1zm2-3.611h-1v2.064h1zm-2 0h-1v2.064h1z" fill="#62b543"/></svg>