<svg width="16" height="16" xmlns="http://www.w3.org/2000/svg"><path d="M2 5v8h6.04a4.5 4.5 0 0 1-.04-.5A4.5 4.5 0 0 1 12.5 8a4.5 4.5 0 0 1 1.5.26V5H2z" fill="#fff"/><path d="M1 2v12h7.262a4.5 4.5 0 0 1-.219-1H6v-2h2.262a4.5 4.5 0 0 1 .515-1H6V8h4v.777a4.5 4.5 0 0 1 1-.515V8h3v.258a4.5 4.5 0 0 1 1 .502V2H1zm1 3h3v2H2V5zm4 0h4v2H6V5zm5 0h3v2h-3V5zM2 8h3v2H2V8zm0 3h3v2H2v-2z" fill="#afb1b3"/><g fill-rule="evenodd"><path d="M16 12.5a3.5 3.5 0 1 1-7 0 3.5 3.5 0 0 1 7 0" fill="#999"/><path d="M13 14v1h-1v-1zm0-4v3h-1v-3z" fill="#fff"/></g></svg>