<svg width="16" height="16" xmlns="http://www.w3.org/2000/svg"><path d="M1 3v10l7 2v-.004s-1.177-.811-1.2-2.502C6.78 10.804 8 9.996 8 9.996V5L1 3z" fill="#e8cd7d"/><path d="M15 3 8 5v5l.002-.002v-1c0-1 1-1 1-1h5s.978.002.998.97V3zM8 14.996V15h.002v-.002L8 14.996z" fill="#97791b"/><path d="m1 3 7 2 7-2-7-2z" fill="#c89e23"/><path d="M11 15.081h-.223c-.22 0-.572-.038-.777-.091V16H9v-1.496c-.576-.467-1-1.112-1-1.909 0-.796.424-1.56 1-2.028V9h1v1.08c.205-.053.556-.09.777-.09H11V9h1v.99h.685c.108 0 .21.019.315.032V9h1v1.346c.415.243.71.598.932 1.026l.893-.894.675.675-1.282 1.283c.001.034.006.03.006.064l-.005.07 1.28 1.276-.674.675-.868-.868c-.222.448-.527.82-.957 1.072V16h-1v-.952c-.106.014-.207.033-.315.033H12V16h-1zm2-3.611h-1v2.064h1zm-2 0h-1v2.064h1z" fill="#62b543"/></svg>