<svg width="16" height="16" xmlns="http://www.w3.org/2000/svg"><path d="M1 4h14v5s0-1-1-1H9C8 8 8 9 8 9v1c-1.4 1.4-1.296 2.716-.716 4H1z" fill="#fff"/><path d="M11 15.092h-.223c-.22 0-.572-.038-.777-.091v1.01H9v-1.496c-.576-.467-.9-1.172-.9-1.969 0-.796.324-1.5.9-1.968V9.011h1v1.081c.205-.053.556-.091.777-.091H11v-.99h1V10h.685c.108 0 .21.02.315.032V9.011h1v1.346c.415.243.71.598.932 1.026l.893-.894.675.675-1.282 1.283c.001.034.006.03.006.064l-.005.07 1.28 1.276-.674.676-.868-.87c-.222.45-.527.821-.957 1.073v1.275h-1v-.952c-.106.014-.207.033-.315.033H12v.919h-1zm2-3.611h-1v2.064h1zm-2 0h-1v2.064h1z" fill="#62b543"/><path fill="#73a9d8" fill-rule="evenodd" d="M0 1h16v3H0z"/><path d="M0 4v11h8c-.4-.4-.614-.777-.706-1H1V4zM15 4v6l1-1V4z" fill="#999"/></svg>