<svg width="16" height="16" xmlns="http://www.w3.org/2000/svg"><path d="M6.465.006V4h3.81l1.17-1.795h.448l.64 1.022V.006H6.465z" fill="#d67876"/><path d="m11.666 2.543-1.067 1.666v5.103H16l-4.333-6.77z" fill="#5eba6a"/><path d="M3.123 8.462a3.9 3.808 0 0 0-3.12 3.742 3.9 3.808 0 0 0 3.91 3.79 3.9 3.808 0 0 0 2.97-1.354H3.817v-.34l1.986-3.045h-2.68V8.462z" fill="#589bc0"/><path d="M3.47 4.993v5.923h2.552L8.45 7.193h.446l.64 1.021v-3.22z" fill="#d67876"/><path d="M8.67 7.532 4.336 14.3h8.667z" fill="#5eba6a"/></svg>