<svg width="16" height="16" xmlns="http://www.w3.org/2000/svg"><path d="M4.6 6.1A4.5 4.5 0 0 0 1 10.52a4.5 4.5 0 0 0 6.541 3.987c-.258-.413-.53-1.054-.541-1.938-.022-1.69 1-2.5 1-2.5V9.4H4.6V6.1z" fill="#589bc0"/><path d="M5 2v7h2.945l2.801-4.4h.516L12 5.807V2H5z" fill="#d67876"/><path d="M11 5 9.103 8.033h3.794z" fill="#5eba6a"/><path d="M11 15.156h-.223c-.22 0-.572-.037-.777-.09v1.01H9v-1.497c-.576-.467-1-1.112-1-1.908 0-.796.424-1.562 1-2.029V9.075h1v1.081c.205-.053.556-.09.777-.09H11v-.991h1v.99h.685c.108 0 .21.02.315.033V9.075h1v1.346c.415.243.71.598.932 1.026l.893-.894.675.675-1.282 1.283c.001.034.006.03.006.064l-.005.07 1.28 1.276-.674.676-.868-.869c-.222.449-.527.82-.957 1.072v1.275h-1v-.951c-.106.013-.207.032-.315.032H12v.919h-1zm2-3.611h-1v2.065h1zm-2 0h-1v2.065h1z" fill="#999" fill-rule="evenodd"/></svg>