<svg width="16" height="16" xmlns="http://www.w3.org/2000/svg"><path d="M4.6 6.1A4.5 4.5 0 0 0 1 10.52 4.5 4.5 0 0 0 5.512 15a4.5 4.5 0 0 0 2.763-.973A4.5 4.5 0 0 1 8.1 13.4H5.4V13l2.291-3.6H4.6V6.1z" fill="#589bc0"/><path d="M5 2v7h2.945l2.801-4.4h.516L12 5.807V2H5z" fill="#d67876"/><path d="m11 5-5 8h2.035A4.5 4.5 0 0 1 8 12.5 4.5 4.5 0 0 1 12.5 8a4.5 4.5 0 0 1 .387.018L11 5z" fill="#5eba6a"/><path d="M13 14v1h-1v-1zm0-4v3h-1v-3z" fill="#fff" fill-rule="evenodd"/><g fill-rule="evenodd"><path d="M16 12.51a3.5 3.5 0 1 1-7 0 3.5 3.5 0 0 1 7 0" fill="#e05555"/><path d="M13 14.01v1h-1v-1zm0-4v3h-1v-3z" fill="#fff"/></g></svg>