<svg width="16" height="16" xmlns="http://www.w3.org/2000/svg"><path d="M7.977 3.863c-.395 0-.777.103-1.147.309s-.704.488-1.004.85l.688 1.06a3.51 3.51 0 0 1 .65-.555 1.15 1.15 0 0 1 .631-.197c.261 0 .465.09.611.272.147.18.221.434.221.763 0 .313-.078.654-.23 1.024-.153.361-.43.84-.83 1.431a52.38 52.38 0 0 1-1.75 2.38v.8h4.205v-1.404H7.805a23.188 23.188 0 0 0 1.365-1.9c.325-.518.552-.973.68-1.368.127-.403.191-.806.191-1.209 0-.501-.09-.92-.268-1.257s-.424-.588-.736-.752a2.205 2.205 0 0 0-1.06-.247zm5.054.012c-.79 0-1.471.354-2.045 1.06l.67.95c.427-.444.86-.666 1.3-.666.254 0 .447.078.581.234.14.148.211.338.211.569 0 .27-.064.503-.191.7s-.346.385-.658.557h-.747l-.086 1.233h.46c.343 0 .611.05.802.148.198.09.33.222.4.395.077.164.116.372.116.627 0 .353-.096.625-.287.814s-.462.283-.813.283a2.48 2.48 0 0 1-1.289-.357l-.45 1.258c.218.14.482.255.794.345.318.099.658.149 1.021.149.555 0 1.01-.116 1.368-.346.356-.23.614-.534.773-.912.16-.386.24-.818.24-1.295s-.1-.884-.297-1.22c-.19-.338-.484-.588-.879-.753.325-.18.58-.419.764-.714.191-.305.287-.658.287-1.061 0-.386-.075-.731-.228-1.035a1.6 1.6 0 0 0-.69-.703c-.306-.173-.68-.26-1.127-.26zm-10.549.137L.801 5.539l.525.963 1.156-.703v4.797H.972V12h3.975v-1.404H3.801V4.012H2.482z" fill="#59a869"/></svg>