<svg width="16" height="16" xmlns="http://www.w3.org/2000/svg"><path d="M7.176 5.89a2.33 2.33 0 0 0-1.147.31c-.37.205-.704.487-1.004.85l.69 1.06c.236-.247.45-.432.648-.555a1.15 1.15 0 0 1 .631-.197c.261 0 .465.09.612.271.146.181.22.435.22.764 0 .312-.077.654-.23 1.023-.153.362-.429.84-.83 1.432-.395.584-.98 1.376-1.75 2.38v.8H9.22v-1.406H7.004c.586-.748 1.042-1.381 1.367-1.899.325-.518.55-.973.678-1.367.127-.403.191-.806.191-1.21 0-.5-.089-.92-.267-1.257a1.746 1.746 0 0 0-.737-.752 2.205 2.205 0 0 0-1.06-.246zm5.054.013c-.79 0-1.471.353-2.044 1.06l.67.95c.426-.444.859-.667 1.298-.667.255 0 .45.079.584.235.14.148.21.338.21.568 0 .271-.065.504-.192.701-.128.198-.346.384-.658.557h-.746l-.086 1.232h.459c.344 0 .611.048.802.147.198.09.33.222.4.395.077.164.116.374.116.628 0 .354-.096.626-.287.815-.191.189-.462.283-.813.283a2.48 2.48 0 0 1-1.289-.357l-.449 1.258c.217.14.48.255.793.345.319.099.66.147 1.024.147.554 0 1.008-.114 1.365-.344s.614-.534.773-.912c.16-.386.24-.818.24-1.295s-.099-.884-.296-1.22c-.192-.338-.484-.588-.88-.753.326-.18.58-.419.764-.715.191-.304.287-.657.287-1.06 0-.387-.075-.731-.228-1.035a1.596 1.596 0 0 0-.688-.704c-.305-.172-.683-.26-1.129-.26zm-10.548.136L0 7.57l.525.96 1.157-.702v4.795H.172v1.406h3.974v-1.406H3V6.039H1.682zM8.775 1.852a2.33 2.33 0 0 0-1.146.308c-.37.206-.703.488-1.002.85l.687 1.06a3.51 3.51 0 0 1 .65-.554c.205-.132.413-.198.63-.198.26 0 .467.091.613.272.147.18.219.435.219.764 0 .202-.036.42-.1.646h1.408a3.91 3.91 0 0 0 .106-.892c0-.502-.09-.921-.268-1.258a1.746 1.746 0 0 0-.736-.752 2.205 2.205 0 0 0-1.06-.246zm5.055.011c-.79 0-1.472.354-2.045 1.06l.67.95c.427-.444.86-.666 1.299-.666.255 0 .45.078.584.235.14.147.209.338.209.568 0 .271-.062.504-.19.701-.064.1-.152.196-.263.29h1.44c.018-.027.039-.052.056-.079a1.95 1.95 0 0 0 .285-1.06c0-.387-.076-.732-.229-1.036a1.596 1.596 0 0 0-.687-.703c-.306-.172-.683-.26-1.129-.26zM3.281 2 1.6 3.528l.525.962 1.156-.703V5H4.6V2H3.28z" fill="#499c54"/></svg>