<svg width="13" height="13" xmlns="http://www.w3.org/2000/svg"><g fill="#6e6e6e" stroke-width=".913"><path d="M3.709 1.09C1.552 1.293 0 1.85 0 2.508c0 .585 1.232 1.09 3.023 1.338A4.493 4.5 90 0 1 3 3.508a4.493 4.5 90 0 1 .709-2.418zM0 3.602v2.003C0 6.088 2.029 6.84 4.656 6.98a4.5 4.5 0 0 1-1.449-2.145C1.321 4.556 0 3.991 0 3.602zm0 2.986v2.004c0 .533 2.475 1.396 5.5 1.396 2.033 0 3.814-.389 4.766-.806L8.9 7.764A4.493 4.5 90 0 1 7.5 8a4.493 4.5 90 0 1-.73-.065c-.409.033-.833.053-1.27.053-3.025 0-5.5-.867-5.5-1.4z"/><path d="M0 9.597V11.6c0 .534 2.475 1.397 5.5 1.397S11 12.134 11 11.6V9.943l-.121-.125c-.53.522-2.746 1.178-5.379 1.178-3.025 0-5.5-.865-5.5-1.399z"/></g><g fill="#6e6e6e" fill-rule="evenodd"><path d="m8.97 5.983 1.051-1.068 2.974 3.022-1.051 1.068z"/><path d="M7.497 6.979c-1.935 0-3.503-1.56-3.503-3.484S5.562.012 7.497.012 11 1.572 11 3.495 9.432 6.98 7.497 6.98zm0-1.394c1.16 0 2.102-.936 2.102-2.09s-.941-2.09-2.102-2.09c-1.16 0-2.102.936-2.102 2.09s.941 2.09 2.102 2.09z"/></g></svg>