<svg width="13" height="13" xmlns="http://www.w3.org/2000/svg"><g fill="#afb1b3" stroke-width=".913"><path d="M5.5 1.01c-3.038 0-5.5.672-5.5 1.5 0 .582 1.22 1.085 3 1.334V3c2.17 0 3.292-.525 3.748-1.95A19.715 19.715 0 0 0 5.5 1.01zM0 3.605V5.61c0 .534 2.475 1.397 5.5 1.397.248 0 .49-.009.73-.02C5.615 6.28 4.587 6 3 6V4.807c-1.776-.288-3-.827-3-1.202zM0 6.59v2.004C0 9.127 2.475 9.99 5.5 9.99c.52 0 1.02-.025 1.498-.07-.005-.796-.082-1.45-.252-1.979-.401.032-.817.05-1.246.05C2.475 7.99 0 7.122 0 6.59z"/><path d="M5.5 11c3.025 0 5.5-.867 5.5-1.4v2.004C11 12.137 8.525 13 5.5 13S0 12.137 0 11.604V9.6c0 .533 2.475 1.4 5.5 1.4z"/></g><path d="M9 .5c0 2 1.5 3.5 3.5 3.5.7.1.7.9 0 1C10.5 5 9 6.5 9 8.5c-.1.7-.9.7-1 0C8 6.5 6.5 5 4.5 5c-.7-.1-.7-.9 0-1C6.5 4 8 2.5 7.988.5 8.1-.2 8.9-.2 9 .5z" fill="#afb1b3"/></svg>