<svg width="13" height="13" xmlns="http://www.w3.org/2000/svg"><g fill="#6e6e6e" stroke-width=".913"><path d="M5.5 1.008c-3.038 0-5.5.672-5.5 1.5 0 .582 1.22 1.085 3 1.334V2l5.5.008.18-.723c-.898-.174-1.994-.277-3.18-.277zM0 3.602v2.003c0 .534 2.475 1.397 5.5 1.397.253 0 .502-.008.746-.02L6 6H3V4.803c-1.775-.288-3-.827-3-1.201zm0 2.986v2.004c0 .533 2.475 1.396 5.5 1.396.51 0 1.002-.027 1.47-.07l-.49-1.963c-.318.02-.645.033-.98.033-3.025 0-5.5-.867-5.5-1.4z"/><path d="M5.5 10.997c3.025 0 5.5-.867 5.5-1.4V11.6c0 .534-2.475 1.397-5.5 1.397S0 12.134 0 11.6V9.597c0 .533 2.475 1.4 5.5 1.4z"/></g><path d="M10.016 0 8.5 6 8 3H4v2h3l1 4h1.2L11 2l1 2h1V2h-.5l-1-2z" fill="#6e6e6e"/></svg>