<svg width="13" height="13" xmlns="http://www.w3.org/2000/svg"><g fill="#afb1b3" stroke-width=".913"><path d="M4.937 1.016C2.164 1.092 0 1.732 0 2.508c0 .782 2.197 1.421 5 1.49V1.016h-.062zM0 3.602v2.003c0 .504 2.207 1.302 5 1.39v-2c-2.793-.089-5-.89-5-1.393zm0 2.986v2.004c0 .503 2.207 1.3 5 1.386v-2c-2.793-.087-5-.887-5-1.39zm11 1.047-2.854 2.13C9.843 9.475 11 8.957 11 8.593v-.957z"/><path d="M5.5 10.997c3.025 0 5.5-.867 5.5-1.4V11.6c0 .534-2.475 1.397-5.5 1.397S0 12.134 0 11.6V9.597c0 .533 2.475 1.4 5.5 1.4z"/></g><path fill="#afb1b3" d="m6 0 7 5-7 5z"/></svg>