<svg width="16" height="16" xmlns="http://www.w3.org/2000/svg"><path d="M11 14.033h-.223c-.22 0-.572-.038-.777-.091v1.01H9v-1.496c-.576-.467-1-1.112-1-1.909 0-.796.424-1.56 1-2.028V7.952h1v1.08c.205-.053.556-.09.777-.09H11v-.99h1v.99h.685c.108 0 .21.019.315.032V7.952h1v1.346c.415.243.71.598.932 1.026l.893-.894.675.675-1.282 1.283c.001.034.006.03.006.064l-.005.07 1.28 1.276-.674.675-.868-.868c-.222.448-.527.82-.957 1.072v1.275h-1V14c-.106.014-.207.033-.315.033H12v.919h-1zm2-3.611h-1v2.064h1zm-2 0h-1v2.064h1z" fill="#62b543"/><path d="M7 1C5.4 1 4 2 4 4v2.5H2.511V8h1.5L4 13.5H2.5V15h5v-1.5H6L6.011 8h1.5L7.5 6.5H6v-3c0-.4.4-1.1 1.2-1.1.8 0 1.3.7 1.3 1.1H10C10 2 8.6 1 7 1z"/></svg>