<svg width="16" height="16" xmlns="http://www.w3.org/2000/svg"><path d="M7 8c-1 .533-2 1.867-2 4s1 3.467 2 4v-1.6c-.754-.718-.8-1.6-.8-2.4s.157-1.796.8-2.4zm1 0v1.6c.758.722.8 1.6.8 2.4 0 .928-.159 1.797-.8 2.4V16c1-.533 2-1.867 2-4S9 8.533 8 8zM13 4c-1 .533-2 1.866-2 4s1 3.466 2 4v-1.6c-.753-.719-.8-1.6-.8-2.4s.158-1.797.8-2.4zm1 0v1.6c.759.72.8 1.6.8 2.4 0 .927-.158 1.796-.8 2.4V12c1-.534 2-1.868 2-4s-1-3.468-2-4z" fill="#eb4a4a"/><path d="M10 0C8.4 0 6.938 1.338 7 3v.355A4 4 0 0 1 8 6v1c.13 0 .68.134 1 .5v-1h1V5H9V2.4c0-.4.4-1 1.2-1 .8 0 1.2.6 1.2 1h1.55C12.676.89 11.6 0 10 0zM3.989 3c-1.6 0-3 1-3 3v2.5H0V10h1v4.5H0V16h4v-1.5H3V10h1V8.5H2.989v-3c0-.4.4-1.1 1.2-1.1.8 0 1.3.7 1.3 1.1h1.5c0-1.5-1.4-2.5-3-2.5z"/></svg>