<svg width="16" height="16" viewBox="0 0 4.233 4.233" xmlns="http://www.w3.org/2000/svg"><g fill="#6e6e6e"><path d="M2.778 0a.926.926 0 0 0-.926.926.926.926 0 0 0 .926.926.926.926 0 0 0 .926-.926A.926.926 0 0 0 2.778 0Zm0 .265a.661.661 0 0 1 .662.661.661.661 0 0 1-.662.661.661.661 0 0 1-.661-.661.661.661 0 0 1 .661-.661Z"/><path d="m3.31 1.66.207-.207.635.613-.208.207z" fill-rule="evenodd"/></g><g fill="#6e6e6e" stroke-linecap="round" stroke-linejoin="round"><path d="m0 1.585 1.587.796v1.846L0 3.44zM3.44 2.219a1.455 1.455 0 0 1-.662.162 1.455 1.455 0 0 1-.63-.145l-.296.148V4.23l1.588-.787V2.219zM1.338.72l-1.206.603 1.613.794.12-.061a1.455 1.455 0 0 1-.542-1.13A1.455 1.455 0 0 1 1.338.72z"/></g></svg>