<svg width="16" height="16" xmlns="http://www.w3.org/2000/svg"><g fill="#afb1b3"><path d="M1 9.6v2.003c0 .43 1.758 1.075 4.17 1.309a6.5 6.506 90 0 1-.166-1.17 6.5 6.506 90 0 1 .03-.846C2.691 10.651 1 10.021 1 9.6zM1 6.6v2.003c0 .431 1.765 1.077 4.186 1.309a6.5 6.506 90 0 1 .859-1.936C3.195 7.833 1 7.08 1 6.6zM1 3.6v2.004c0 .523 2.603 1.363 5.82 1.394a6.5 6.506 90 0 1 4.31-1.988 6.5 6.506 90 0 1 1.87.17V3.6C13 4.133 10.3 5 7 5s-6-.867-6-1.4z"/><path d="M1 2.5C1 3.328 3.686 4 7 4s6-.672 6-1.5S10.314 1 7 1s-6 .672-6 1.5z"/></g><path d="M11.504 9.504v2l1.983 1" fill="none" stroke="#afb1b3" stroke-linecap="round" stroke-linejoin="round"/><path d="M11.506 7.008a4.494 4.496 0 0 0-4.494 4.496A4.494 4.496 0 0 0 11.506 16 4.494 4.496 0 0 0 16 11.504a4.494 4.496 0 0 0-4.494-4.496zm0 .996a3.498 3.5 0 0 1 3.498 3.5 3.498 3.5 0 0 1-3.498 3.5 3.498 3.5 0 0 1-3.498-3.5 3.498 3.5 0 0 1 3.498-3.5z" fill="#afb1b3"/></svg>