<svg width="16" height="16" xmlns="http://www.w3.org/2000/svg" xmlns:xlink="http://www.w3.org/1999/xlink"><defs><path id="a" d="M13.5 10c-.276 0-.5.312-.5.696v2.608c0 .384.224.696.5.696s.5-.312.5-.696v-2.608c0-.384-.224-.696-.5-.696zm0-1a1.5 1.5 0 0 1 1.5 1.5V13a1.5 1.5 0 1 1-3 0v-2.5A1.5 1.5 0 0 1 13.5 9z"/></defs><g fill-rule="evenodd" fill="#999"><path d="M11 12h5v4h-5z"/><use xlink:href="#a"/></g><path d="M4.096 8.115C2.849 8.881 2 9.945 2 11v4h8v-4h1V9.5c0-.217.046-.423.129-.61A5 5 0 0 1 8 10a5 5 0 0 1-3.904-1.885zm7.808 0a5 5 0 0 1-.011.012l.017-.008-.006-.004z" fill="#5f8dd3"/><path d="M8 9c2.112 0 4-1.792 4-4s-1.888-4-4-4-4 1.792-4 4 1.888 4 4 4z" fill="#eda200"/></svg>