<svg width="16" height="16" xmlns="http://www.w3.org/2000/svg"><path d="M13.9 7.113a5 5 0 0 1-2.613 1.715c.332.242.61.486.838.723.625.65.875 1.248.875 1.648V14h3v-4c0-.991-.75-1.992-1.875-2.744a6.75 6.75 0 0 0-.225-.143z" fill="#5f8dd3"/><path d="M10.635 7.919c.254-.054.644-.132.881-.233a4.15 4.15 0 0 0 1.276-.858A3.97 3.97 0 0 0 14 4c0-2.208-1.888-4-4-4-1.056 0-2.056.448-2.792 1.172C11.2 2.2 11.458 5.4 10.635 7.919z" fill="#f0a732"/><path d="M6 10c2.112 0 4-1.792 4-4S8.112 2 6 2 2 3.792 2 6s1.888 4 4 4z" fill="#f0a732"/><path d="M2.1 9.114C.85 9.879 0 10.944 0 12v4h12v-4c0-1.056-.85-2.12-2.1-2.886A5 5 0 0 1 6 11a5 5 0 0 1-3.9-1.886z" fill="#5f8dd3"/></svg>