<svg width="16" height="16" xmlns="http://www.w3.org/2000/svg"><path d="M1 6v8h4v-2.4h4.566A3.5 3.5 0 0 1 12.5 10a3.5 3.5 0 0 1 .5.037V6z" fill="#f2f2f2"/><path d="M0 3v12h6.2L5 14v-2.4h4.572a3.5 3.5 0 0 1 .485-.6H10V9h3v1.037a3.5 3.5 0 0 1 1 .303V3zm1 3h3v2H1zm4 0h4v2H5zm5 0h3v2h-3zM1 9h3v2H1zm4 0h4v2H5zm-4 3h3v2H1z" fill="#afb1b3"/><g fill="#f5c400"><path d="M15 13.5a2.5 2.5 0 1 0-4.999-.002 2.5 2.5 0 0 0 5 .001zm-1.265 0a.625.625 0 1 1-1.25 0 .625.625 0 0 1 1.25 0z"/><path d="M11.2 12.6H6.002v.9l.998.9h.6L8 14h1l.4.4h1.8z"/></g><path d="M2 0v2h13v9h1V0z" fill="#afb1b3"/></svg>