<svg width="16" height="16" xmlns="http://www.w3.org/2000/svg"><path d="M2 5v8h4v-2.4h4.566A3.5 3.5 0 0 1 13.5 9a3.5 3.5 0 0 1 .5.037V5H2z" fill="#f2f2f2"/><path d="M1 2v12h6.2L6 13v-2.4h4.572a3.5 3.5 0 0 1 .485-.6H11V8h3v1.037a3.5 3.5 0 0 1 1 .303V2zm1 3h3v2H2zm4 0h4v2H6zm5 0h3v2h-3zM2 8h3v2H2zm4 0h4v2H6zm-4 3h3v2H2z" fill="#afb1b3"/><g fill="#f5c400"><path d="M16 12.5a2.5 2.5 0 1 0-4.999-.002 2.5 2.5 0 0 0 5 .001zm-1.265 0a.625.625 0 1 1-1.25 0 .625.625 0 0 1 1.25 0z"/><path d="M12.2 11.6H7.002v.9l.998.9h.6L9 13h1l.4.4h1.8z"/></g></svg>