<svg width="16" height="16" xmlns="http://www.w3.org/2000/svg"><path d="M2 5h12v8H2z" fill="#fff"/><path d="M2 5v8h6.04a4.5 4.5 0 0 1-.04-.5A4.5 4.5 0 0 1 12.5 8a4.5 4.5 0 0 1 1.5.258V5H2z" fill="#f2f2f2"/><path d="M1 4v10h7.266a4.5 4.5 0 0 1-.227-1h-2.04v-2h2.269a4.5 4.5 0 0 1 .503-1H6V8h3v1.691a4.5 4.5 0 0 1 1-.918V8h3v.03a4.5 4.5 0 0 1 1 .23V4H1zm1 1h3v2H2V5zm4 0h3v2H6V5zm4 0h3v2h-3V5zM2 8h3v2H2V8zm0 3h3v2H2v-2z" fill="#b1b2b4"/><path d="M2 2v2h12v4.258a4.5 4.5 0 0 1 1 .502V2H2z" fill="#73a9d8"/><path d="M13 14.001v1h-1v-1zm0-4v3h-1v-3z" fill="#fff" fill-rule="evenodd"/><g fill-rule="evenodd"><path d="M16 12.5a3.5 3.5 0 1 1-7 0 3.5 3.5 0 0 1 7 0" fill="#e05555"/><path d="M13 14v1h-1v-1zm0-4v3h-1v-3z" fill="#fff"/></g></svg>