<svg width="16" height="16" xmlns="http://www.w3.org/2000/svg"><g fill="#a1a3a6" stroke-width=".913"><path d="M1 5.7c0 .414.504.79 1.318 1.06.622.199 1.106.262 1.685.36L4 6.4s1.23-1.424 2-2.2c-2.486 0-5 .672-5 1.5z"/><path d="M5.5 7.8c.54.012 1.004-.059 1.5-.112v2c-.51.085-1.029.092-1.5.112C3.025 9.8 1 8.937 1 8.404V6.4c0 .533 2.025 1.4 4.5 1.4z"/><path d="M5.5 10.4c.53.01 1.007-.054 1.504-.106C7 10.8 7 11.4 7 12.296c-.503.078-1.039.086-1.5.104-2.475 0-4.5-.863-4.5-1.396V9c0 .533 2.025 1.4 4.5 1.4z"/><path d="M5.5 12.997C8.2 13 10 13 10 13v.6c0 .534-2.025 1.397-4.5 1.397S1 14.134 1 13.6v-2.003c0 .533 2.025 1.4 4.5 1.4z"/></g><g fill="#f26522" fill-rule="evenodd"><path d="M13 6.509V12H8V6.509z"/><path d="M10.5 1 16 6.998H5z"/></g></svg>