<svg width="16" height="16" xmlns="http://www.w3.org/2000/svg"><g fill="#8f8f8f" stroke-width=".913"><path d="M1 5.7c0 .207.126.404.354.584s.557.34.964.477a8.21 8.21 0 0 0 1.43.321c.27.038.552.068.845.088l.466.03L4 6V5h3v-.716c-.504-.063-1.039-.07-1.5-.084-2.486 0-4.5.672-4.5 1.5zM5.6 7.8c.94 1.084-.012 0 1.624 1.845-.538.09-1.105.155-1.724.155C3.025 9.8 1 8.937 1 8.404V6.4c0 .533 2.125 1.4 4.6 1.4z"/><path d="M5.5 10.4a10.69 10.69 0 0 0 2.195-.229l1.4 1.57-.417.16c-.816.283-1.94.499-3.178.499-2.475 0-4.5-.863-4.5-1.396V9c0 .533 2.025 1.4 4.5 1.4z"/><path d="M5.5 12.997c1.237 0 2.362-.217 3.178-.5a5.54 5.54 0 0 0 .55-.223l.227-.105.545.615v.816c0 .534-2.025 1.397-4.5 1.397S1 14.134 1 13.6v-2.003c0 .533 2.025 1.4 4.5 1.4z"/></g><g fill="#62b543" fill-rule="evenodd"><path d="M13 7V.982H8V7z"/><path d="M4.996 5.997 10.498 12l5.501-6.003z"/></g></svg>