<svg width="16" height="16" xmlns="http://www.w3.org/2000/svg"><path d="M3 3v10h3.22a5.5 5.5 0 0 1-.216-1.295 5.5 5.5 0 0 1 5.19-5.697A5.5 5.5 0 0 1 13 6.223V3H3z" fill="#db5860"/><path d="M11.498 9.496v2l1.983 1" fill="none" stroke="#6e6e6e" stroke-linecap="round" stroke-linejoin="round"/><path d="M11.5 7a4.494 4.496 0 0 0-4.494 4.496 4.494 4.496 0 0 0 4.494 4.496 4.494 4.496 0 0 0 4.494-4.496A4.494 4.496 0 0 0 11.5 7zm0 .996a3.498 3.5 0 0 1 3.498 3.5 3.498 3.5 0 0 1-3.498 3.5 3.498 3.5 0 0 1-3.498-3.5 3.498 3.5 0 0 1 3.498-3.5z" fill="#6e6e6e"/></svg>