<?xml version="1.0" encoding="UTF-8"?>
<!-- Copyright 2000-2023 JetBrains s.r.o. and contributors. Use of this source code is governed by the Apache 2.0 license. -->
<svg width="16" height="16" fill="none" version="1.1" viewBox="0 0 16 16" xmlns="http://www.w3.org/2000/svg">
 <path d="m8.0215 2.0039c1.6954 0.00611 3.2422 0.72248 4.3359 1.8789l1.6426-1.6426v4.998h-5l2.084-2.082c-0.38557-0.41848-0.85481-0.75594-1.3789-0.99023-0.018691-0.015936-0.042761-0.029657-0.074219-0.042969-0.50333-0.21299-1.0578-0.33203-1.6387-0.33203-2.3235 0-4.207 1.8863-4.207 4.2109s1.8835 4.209 4.207 4.209c2.017 0 3.7038-1.421 4.1133-3.3164l1.8457-0.16211c-0.16386 1.3549-0.78397 2.5789-1.707 3.5059l-0.0059 0.0059c-0.06754 0.06754-0.13635 0.13494-0.20703 0.19922-3.48e-4 3.17e-4 -0.0016-3.16e-4 -2e-3 0-0.06127 0.05572-0.12393 0.11086-0.1875 0.16406-0.02632 0.02201-0.05338 0.04289-0.08008 0.06445-0.05305 0.04284-0.10564 0.0859-0.16016 0.12695-0.01083 0.0082-0.02232 0.01536-0.0332 0.02344-0.07158 0.05314-0.14477 0.10432-0.21875 0.1543-0.15962 0.10784-0.32409 0.2084-0.49414 0.30078-0.17006 0.09238-0.34591 0.17799-0.52539 0.25391-0.08974 0.03796-0.17958 0.07377-0.27148 0.10742-0.18382 0.06731-0.37272 0.12449-0.56445 0.17383-0.083633 0.02152-0.16695 0.04259-0.25195 0.06055-0.027875 0.0059-0.05596 0.01012-0.083984 0.01563-0.37629 0.07391-0.76611 0.11328-1.1641 0.11328-3.3142 0-6-2.6857-6-6 0-0.28905 0.021042-0.57342 0.060547-0.85156 9.1e-5 -6.362e-4 -9.1e-5 -0.00132 0-0.00195 0.012327-0.086283 0.026982-0.17269 0.042969-0.25781 0.013131-0.069921 0.027418-0.13794 0.042968-0.20703 0.00867-0.038681 0.017934-0.07684 0.027344-0.11523 0.00962-0.039078 0.018912-0.078402 0.029297-0.11719 0.011541-0.043269 0.024631-0.086028 0.037109-0.12891 0.018072-0.061894 0.036635-0.12447 0.056641-0.18555 0.080275-0.24509 0.17511-0.4824 0.28516-0.71289 0.036683-0.07683 0.075406-0.15349 0.11524-0.22852 0.039828-0.075027 0.082107-0.14952 0.125-0.22266 0.042893-0.073135 0.086936-0.14564 0.13281-0.2168 0.13763-0.21346 0.28815-0.41733 0.45117-0.61133 1.0325-1.2286 2.5524-2.0422 4.2812-2.1328 0.11427-0.00599 0.22682-0.00822 0.33984-0.00781z" fill="#6e6e6e"/>
</svg>
