<svg width="16" height="16" xmlns="http://www.w3.org/2000/svg"><path d="M5.5 0C2.462 0 0 .672 0 1.5S2.462 3 5.5 3 11 2.328 11 1.5 8.538 0 5.5 0zM0 2.7v1.814C0 5.047 2.475 5.91 5.5 5.91c1.044 0 2.02-.105 2.854-.262L11 3.006v-.307c0 .534-2.475 1.4-5.5 1.4S0 3.234 0 2.7zm0 3v1.804c0 .504 2.207 1.301 5 1.389V7.092c-2.793-.088-5-.89-5-1.393zm0 3v1.894c0 .3.78.702 2 .998v-1.89c-1.22-.298-2-.703-2-1.003z" fill="#6e6e6e"/><path d="M13 9v3.2L8.8 8 13 3.8V7h3v2zM7 13v3.2l4.2-4.2L7 7.8V11H4v2z" fill="#389fd6"/></svg>